<svg width="345" height="342" viewBox="0 0 345 342" fill="none" xmlns="http://www.w3.org/2000/svg">
<path d="M34.3935 114.05L33.8189 113.768C34.0812 113.136 34.2301 112.639 34.2656 112.276C34.301 111.913 34.1698 111.6 33.8719 111.335C33.5835 111.051 33.0945 110.74 32.4049 110.402L18.1528 103.416C17.4441 103.069 16.8987 102.873 16.5166 102.828C16.1248 102.755 15.7916 102.853 15.5169 103.122C15.2325 103.363 14.935 103.775 14.6246 104.36L14.0499 104.078C14.3228 103.57 14.6708 102.909 15.094 102.095C15.5266 101.262 15.945 100.433 16.349 99.6099C16.7813 98.7289 17.1757 97.9006 17.5325 97.1251C17.8986 96.3305 18.1895 95.6891 18.4052 95.2009L18.9799 95.4825C18.6984 96.1048 18.5448 96.6116 18.5191 97.0029C18.4837 97.3657 18.6149 97.6795 18.9128 97.9442C19.1914 98.1996 19.6852 98.501 20.3939 98.8484L34.646 105.834C35.3356 106.172 35.8763 106.378 36.2681 106.451C36.6693 106.505 37.0025 106.407 37.2678 106.157C37.5331 105.907 37.8352 105.485 38.1742 104.891L38.7489 105.172C38.4756 105.632 38.1464 106.255 37.7611 107.04C37.3661 107.797 36.9525 108.616 36.5202 109.497C36.1162 110.32 35.717 111.158 35.3227 112.01C34.9187 112.834 34.6089 113.514 34.3935 114.05ZM28.4173 126.23L27.8426 125.949C28.105 125.317 28.2539 124.82 28.2893 124.457C28.3247 124.094 28.1935 123.781 27.8957 123.516C27.6073 123.232 27.1182 122.921 26.4286 122.583L12.1766 115.597C11.4678 115.25 10.9224 115.054 10.5404 115.009C10.1486 114.936 9.81536 115.034 9.54068 115.303C9.25624 115.544 8.9588 115.956 8.64834 116.541L8.07367 116.259C8.33713 115.77 8.67108 115.138 9.07549 114.362C9.48931 113.567 9.92643 112.701 10.3869 111.762C10.7815 110.958 11.1619 110.158 11.528 109.364C11.8941 108.569 12.1944 107.908 12.429 107.382L13.0037 107.663C12.7221 108.286 12.5685 108.793 12.5429 109.184C12.5075 109.547 12.6387 109.86 12.9365 110.125C13.2152 110.381 13.7089 110.682 14.4177 111.029L28.6697 118.015C29.3593 118.353 29.9 118.559 30.2918 118.632C30.693 118.686 31.0262 118.588 31.2915 118.338C31.5568 118.088 31.8589 117.666 32.1979 117.072L32.7726 117.353C32.4806 117.852 32.142 118.493 31.7567 119.279C31.3523 120.055 30.9527 120.845 30.5581 121.649C30.0977 122.588 29.6797 123.464 29.3042 124.277C28.9189 125.063 28.6233 125.714 28.4173 126.23ZM20.8574 116.502L20.2827 116.221L25.8502 104.873L26.4249 105.154L20.8574 116.502Z" fill="#181306"/>
<path d="M31.1758 86.2669C32.2456 84.7242 33.5403 83.8305 35.06 83.5857C36.5797 83.3409 38.3742 83.9353 40.4434 85.369L34.4442 94.0204L33.9079 93.7268L37.646 88.336C36.7989 87.7232 35.9734 87.2291 35.1693 86.8536C34.3477 86.4661 33.6265 86.2519 33.0058 86.2112C32.385 86.1704 31.9227 86.3691 31.6188 86.8074C31.1933 87.421 31.2144 88.2142 31.6821 89.187C32.1619 90.1424 33.2658 91.2835 34.9936 92.6103L35.2061 92.6408C35.4044 92.8041 35.6115 92.9735 35.8273 93.149C36.0552 93.3069 36.292 93.4709 36.5375 93.641C37.7474 94.4793 38.8449 94.9932 39.8299 95.1825C40.8271 95.3543 41.6834 95.2987 42.3988 95.0158C43.0967 94.7207 43.6341 94.3014 44.0109 93.758C44.2662 93.3898 44.4749 92.9765 44.6372 92.5179C44.794 92.0296 44.8632 91.4806 44.8447 90.8709C44.8086 90.249 44.6316 89.5683 44.3136 88.8289L44.7996 88.465C45.3201 89.137 45.738 89.9196 46.0532 90.8128C46.3684 91.706 46.4846 92.6429 46.4016 93.6236C46.3187 94.6042 45.9368 95.5854 45.2561 96.5672C44.4294 97.7593 43.4458 98.6349 42.3051 99.1942C41.1644 99.7535 39.8944 99.9377 38.4951 99.7468C37.108 99.5384 35.6165 98.8814 34.0208 97.7758C32.3899 96.6459 31.2193 95.4326 30.509 94.1359C29.8107 92.8216 29.5329 91.5002 29.6754 90.1715C29.8126 88.8131 30.3127 87.5116 31.1758 86.2669Z" fill="#181306"/>
<path d="M36.569 66.2013L53.3701 80.5278C54.0519 81.1092 54.6115 81.3901 55.0489 81.3706C55.5002 81.3349 55.9682 81.033 56.453 80.4652L56.9643 80.9012C56.6849 81.1956 56.2739 81.6442 55.7313 82.2469C55.1725 82.8358 54.623 83.4466 54.0829 84.0794C53.5427 84.7122 53.0118 85.3669 52.4902 86.0436C51.9662 86.6903 51.5739 87.1827 51.3131 87.5211L50.8017 87.0851C51.2865 86.5172 51.5041 86.0159 51.4546 85.5811C51.4188 85.1301 51.0601 84.6139 50.3783 84.0325L36.4991 72.1976C35.7686 71.5747 35.136 71.2315 34.6012 71.1679C34.064 71.0743 33.5391 71.3277 33.0266 71.928L32.5153 71.492C33.0072 71.0143 33.461 70.5321 33.8765 70.0453C34.4444 69.3801 34.9602 68.7266 35.424 68.0847C35.8716 67.429 36.2532 66.8012 36.569 66.2013Z" fill="#181306"/>
<path d="M45.5515 56.6318L61.2557 72.153C61.893 72.7828 62.4304 73.1041 62.8681 73.1167C63.3208 73.1142 63.8098 72.8476 64.335 72.3169L64.8129 72.7893C64.5126 73.0624 64.0698 73.4795 63.4844 74.0408C62.8838 74.587 62.2909 75.1558 61.7057 75.7471C61.1204 76.3385 60.5428 76.9524 59.9729 77.589C59.4029 78.1953 58.9754 78.6576 58.6904 78.9759L58.2125 78.5035C58.7377 77.9728 58.9915 77.4888 58.974 77.0516C58.9715 76.5992 58.6516 76.0581 58.0144 75.4283L45.0414 62.6064C44.3586 61.9316 43.7528 61.5429 43.2241 61.4402C42.6952 61.3074 42.1532 61.5216 41.5979 62.0826L41.12 61.6102C41.6457 61.17 42.1336 60.7224 42.5838 60.2675C43.1991 59.6458 43.7616 59.0319 44.2713 58.4259C44.7658 57.8049 45.1926 57.2069 45.5515 56.6318Z" fill="#181306"/>
<path d="M62.1339 52.4941C63.3379 51.5063 64.5762 50.8629 65.849 50.5637C67.1218 50.2645 68.4202 50.3996 69.7441 50.9691C71.068 51.5386 72.4004 52.6393 73.7412 54.2711C75.082 55.9029 75.9031 57.423 76.2044 58.8314C76.4922 60.2233 76.3654 61.5139 75.824 62.7032C75.2826 63.8924 74.4098 64.9809 73.2059 65.9687C72.0349 66.9294 70.8047 67.5661 69.5154 67.8788C68.2426 68.178 66.9428 68.0579 65.6159 67.5184C64.292 66.9489 62.9597 65.8483 61.6188 64.2165C60.278 62.5847 59.4569 61.0646 59.1556 59.6562C58.8707 58.2342 58.999 56.9286 59.5405 55.7393C60.0984 54.5366 60.9629 53.4548 62.1339 52.4941ZM62.5402 52.9886C61.8805 53.5298 61.7343 54.4776 62.1016 55.8319C62.4553 57.1697 63.5396 58.943 65.3545 61.1517C67.1694 63.3603 68.699 64.7682 69.9434 65.3754C71.1878 65.9825 72.1398 66.0155 72.7995 65.4742C73.4758 64.9194 73.6287 63.9799 73.2585 62.6556C72.9047 61.3178 71.8204 59.5446 70.0055 57.3359C68.1907 55.1272 66.661 53.7193 65.4167 53.1121C64.1752 52.475 63.2164 52.4338 62.5402 52.9886Z" fill="#181306"/>
<path opacity="0.42" d="M112.108 17.2901C113.435 16.8192 114.592 16.6349 115.579 16.7373C116.58 16.8123 117.504 16.9934 118.354 17.2806C118.863 17.4393 119.179 17.3725 119.302 17.0801C119.437 16.7604 119.391 16.1542 119.164 15.2614L119.857 15.0153C120.096 15.8134 120.406 16.7788 120.786 17.9114C121.159 19.024 121.675 20.5048 122.333 22.3539L121.64 22.6C121.21 21.7112 120.8 20.9737 120.411 20.3876C120.014 19.7814 119.585 19.2771 119.125 18.8745C118.665 18.4719 118.102 18.1624 117.436 17.9459C116.754 17.6218 116.039 17.4569 115.29 17.4512C114.54 17.4454 113.804 17.571 113.08 17.8278C111.994 18.2131 111.173 18.8327 110.617 19.6867C110.053 20.5206 109.705 21.5156 109.573 22.6716C109.461 23.8206 109.516 25.0573 109.739 26.3819C109.954 27.6864 110.297 29.0019 110.769 30.3284C111.249 31.675 111.821 32.9322 112.485 34.0998C113.163 35.2402 113.914 36.2071 114.74 37.0006C115.586 37.787 116.501 38.3225 117.486 38.607C118.47 38.8915 119.495 38.8446 120.561 38.4665C121.224 38.2311 121.845 37.875 122.422 37.3984C123.013 36.8945 123.464 36.3158 123.774 35.6622C124.344 34.781 124.612 33.8483 124.579 32.864C124.538 31.8597 124.324 30.5889 123.935 29.0517L124.629 28.8055C125.309 30.7149 125.869 32.2589 126.311 33.4376C126.746 34.5962 127.127 35.5703 127.453 36.36L126.76 36.6062C126.372 35.7705 126.038 35.2777 125.758 35.128C125.498 34.9711 125.198 35.1119 124.855 35.5502C124.297 36.3368 123.668 37.0808 122.966 37.7825C122.278 38.4569 121.28 39.026 119.974 39.4897C117.843 40.246 115.819 40.4774 113.903 40.1839C112.007 39.8834 110.327 39.076 108.863 37.762C107.399 36.4479 106.26 34.6453 105.444 32.354C104.643 30.103 104.395 27.9728 104.699 25.9634C105.023 23.9469 105.811 22.1846 107.063 20.6763C108.335 19.1609 110.017 18.0321 112.108 17.2901Z" fill="#181306"/>
<path opacity="0.42" d="M142.183 16.003L137.584 33.4919L139.215 33.1608C140.03 32.9952 140.759 32.673 141.402 32.1942C142.061 31.6903 142.548 30.9819 142.863 30.0691C143.198 29.1519 143.273 27.9721 143.088 26.5294L143.747 26.3957C144.058 27.9216 144.324 29.1737 144.545 30.1519C144.762 31.1092 144.96 31.9181 145.138 32.5785C144.189 32.7277 143.2 32.8959 142.171 33.083C141.142 33.2701 140.116 33.4677 139.091 33.6757C138.025 33.8922 136.929 34.1255 135.805 34.3756C134.684 34.6466 133.616 34.9071 132.6 35.1569L137.199 17.668L135.443 18.0246C134.607 18.1944 133.869 18.5292 133.231 19.0289C132.609 19.5034 132.154 20.2054 131.864 21.1349C131.591 22.0393 131.535 23.2045 131.695 24.6305L131.037 24.7642C130.721 23.2174 130.455 21.9653 130.238 21.008C130.021 20.0507 129.824 19.2418 129.645 18.5814C130.616 18.4279 131.615 18.2577 132.644 18.0706C133.672 17.8834 134.689 17.688 135.692 17.4843C136.779 17.2635 137.875 17.0302 138.978 16.7843C140.099 16.5133 141.167 16.2528 142.183 16.003Z" fill="#181306"/>
<path opacity="0.42" d="M156.764 13.9819C158.636 13.8328 160.148 14.2688 161.3 15.2898C162.452 16.3109 163.129 18.076 163.331 20.5853L152.836 21.4214L152.723 20.8205L159.263 20.2995C159.2 19.2558 159.059 18.304 158.84 17.444C158.62 16.5627 158.329 15.869 157.967 15.3628C157.605 14.8566 157.158 14.6246 156.627 14.667C155.883 14.7263 155.282 15.245 154.826 16.223C154.391 17.1993 154.207 18.7762 154.275 20.9536L154.386 21.1374C154.385 21.3943 154.385 21.6618 154.386 21.9399C154.409 22.2164 154.432 22.5034 154.456 22.8011C154.573 24.2684 154.871 25.4431 155.349 26.3253C155.848 27.2058 156.433 27.8333 157.105 28.2078C157.776 28.561 158.44 28.7113 159.1 28.6588C159.546 28.6232 159.998 28.523 160.456 28.3581C160.933 28.1703 161.402 27.8762 161.862 27.4757C162.32 27.0539 162.735 26.4859 163.105 25.7715L163.695 25.9172C163.505 26.7456 163.164 27.5646 162.672 28.3741C162.181 29.1837 161.53 29.867 160.718 30.4238C159.907 30.9807 158.906 31.3066 157.715 31.4014C156.269 31.5166 154.968 31.31 153.813 30.7814C152.657 30.2528 151.71 29.3866 150.971 28.1829C150.254 26.9774 149.817 25.4071 149.662 23.472C149.503 21.4944 149.7 19.8201 150.253 18.4491C150.828 17.0765 151.674 16.0246 152.793 15.2935C153.931 14.5394 155.255 14.1022 156.764 13.9819Z" fill="#181306"/>
<path opacity="0.42" d="M175.675 13.5158C176.571 13.5501 177.344 13.6972 177.996 13.9571C178.67 14.1964 179.153 14.4284 179.443 14.6531C180.149 15.1712 180.609 14.8686 180.822 13.7453L181.494 13.7711C181.429 14.3663 181.369 15.1006 181.314 15.9738C181.261 16.8257 181.207 17.9658 181.153 19.3941L180.482 19.3684C180.405 18.5755 180.232 17.7896 179.962 17.0107C179.693 16.2318 179.28 15.5862 178.723 15.0738C178.187 14.5622 177.471 14.2892 176.576 14.2548C175.958 14.2311 175.429 14.3923 174.989 14.7383C174.549 15.063 174.317 15.5558 174.292 16.2167C174.268 16.8562 174.439 17.4285 174.804 17.9336C175.17 18.4173 175.643 18.8945 176.223 19.365C176.825 19.8151 177.447 20.298 178.089 20.8137C178.773 21.3736 179.392 21.9311 179.947 22.4862C180.504 23.0199 180.94 23.6024 181.258 24.2337C181.576 24.865 181.719 25.6071 181.686 26.4598C181.65 27.4191 181.341 28.2505 180.759 28.9541C180.178 29.6363 179.422 30.1517 178.491 30.5002C177.581 30.8496 176.572 31.003 175.464 30.9605C174.824 30.9359 174.251 30.8499 173.744 30.7023C173.259 30.5556 172.838 30.3794 172.483 30.1736C172.211 30.0351 171.949 29.9076 171.697 29.7912C171.468 29.6543 171.248 29.5391 171.038 29.4456C170.827 29.3735 170.632 29.4407 170.454 29.6474C170.296 29.8548 170.168 30.1488 170.068 30.5292L169.397 30.5035C169.465 29.8229 169.529 28.9928 169.587 28.0129C169.645 27.0331 169.705 25.7331 169.767 24.113L170.438 24.1387C170.522 25.2948 170.718 26.3271 171.025 27.2355C171.333 28.1227 171.766 28.8331 172.322 29.3668C172.9 29.88 173.637 30.1538 174.532 30.1882C174.895 30.2021 175.249 30.141 175.596 30.0048C175.943 29.8687 176.229 29.6342 176.455 29.3013C176.703 28.9692 176.836 28.5367 176.856 28.0037C176.892 27.0657 176.612 26.2757 176.017 25.6338C175.444 24.9927 174.702 24.2917 173.791 23.5309C173.13 22.9504 172.501 22.3819 171.903 21.8252C171.327 21.248 170.859 20.6323 170.499 19.978C170.141 19.3024 169.977 18.5489 170.008 17.7175C170.045 16.7582 170.331 15.9579 170.868 15.3167C171.404 14.6755 172.095 14.2109 172.938 13.9231C173.804 13.6147 174.716 13.4789 175.675 13.5158ZM179.859 4.51755C180.21 4.8086 180.388 5.19968 180.391 5.69082C180.393 6.18195 180.216 6.63416 179.859 7.04743C179.502 7.4607 179.071 7.82847 178.568 8.15075C178.065 8.47302 177.463 8.86622 176.762 9.33036C176.083 9.79532 175.258 10.4468 174.287 11.2849L173.946 10.9836C174.629 9.85693 175.134 8.91562 175.462 8.15962C175.79 7.38231 176.071 6.7206 176.305 6.17451C176.539 5.62842 176.845 5.15981 177.223 4.76868C177.559 4.35459 177.984 4.12538 178.498 4.08106C179.034 4.01624 179.488 4.16174 179.859 4.51755Z" fill="#181306"/>
<path opacity="0.42" d="M196.479 15.4776C197.301 15.6059 198.035 15.8174 198.68 16.1124C199.349 16.3895 199.884 16.6996 200.284 17.0427C200.779 17.4655 201.135 17.9528 201.352 18.5048C201.592 19.0389 201.662 19.6327 201.56 20.2862C201.445 21.024 201.118 21.5991 200.579 22.0116C200.043 22.403 199.406 22.5412 198.669 22.4261C197.931 22.311 197.374 22.0082 196.996 21.5175C196.619 21.0269 196.487 20.4232 196.598 19.7065C196.703 19.032 197.001 18.5062 197.491 18.1293C197.985 17.7313 198.517 17.5013 199.088 17.4392C198.953 17.2021 198.728 16.9835 198.413 16.7833C198.099 16.5832 197.731 16.4502 197.309 16.3845C196.656 16.2825 196.047 16.3818 195.482 16.6823C194.938 16.9862 194.445 17.449 194.003 18.071C193.561 18.6929 193.174 19.4423 192.843 20.3191C192.534 21.1992 192.295 22.1768 192.128 23.2519C191.875 24.875 191.877 26.1816 192.133 27.1716C192.41 28.1648 192.836 28.9005 193.409 29.3786C194.003 29.8599 194.648 30.1549 195.344 30.2634C195.745 30.3258 196.186 30.33 196.67 30.2759C197.174 30.225 197.699 30.0477 198.242 29.7439C198.807 29.4433 199.355 28.9782 199.885 28.3483L200.392 28.6218C200.039 29.3656 199.538 30.0864 198.89 30.7841C198.242 31.4819 197.457 32.0179 196.535 32.3923C195.616 32.7457 194.546 32.827 193.323 32.6363C191.953 32.4225 190.755 31.9334 189.73 31.1689C188.729 30.3866 187.988 29.321 187.507 27.9721C187.051 26.6054 186.976 24.9313 187.285 22.9498C187.58 21.0527 188.165 19.5138 189.039 18.3331C189.938 17.1347 191.029 16.3008 192.311 15.8315C193.593 15.3621 194.982 15.2442 196.479 15.4776ZM200.827 6.89314C201.142 7.22307 201.273 7.6321 201.219 8.12022C201.164 8.60834 200.936 9.03689 200.533 9.40587C200.13 9.77486 199.66 10.0902 199.123 10.3518C198.585 10.6135 197.942 10.9341 197.192 11.3137C196.463 11.6966 195.567 12.2479 194.506 12.9675L194.202 12.6286C195.012 11.589 195.623 10.7127 196.036 9.9999C196.452 9.26598 196.809 8.64143 197.105 8.12624C197.401 7.61105 197.759 7.18115 198.18 6.83653C198.562 6.46426 199.01 6.28596 199.526 6.30163C200.066 6.29951 200.5 6.49668 200.827 6.89314Z" fill="#181306"/>
<path d="M243.475 23.5069C243.955 23.7852 244.586 24.1434 245.368 24.5814C246.15 25.0194 246.937 25.448 247.729 25.8672C248.634 26.3463 249.515 26.8009 250.374 27.2312C251.232 27.6615 251.841 27.9714 252.199 28.161C254.537 29.3986 256.061 30.7366 256.772 32.1749C257.502 33.6232 257.522 34.9978 256.833 36.2986C256.484 36.9584 255.931 37.5229 255.176 37.992C254.421 38.4611 253.488 38.74 252.379 38.8288C251.27 38.9175 249.991 38.7351 248.541 38.2816L248.511 38.3381C250.213 39.4083 251.448 40.4723 252.216 41.5302C252.983 42.5882 253.404 43.5951 253.477 44.5511C253.55 45.507 253.382 46.3714 252.972 47.1444C252.343 48.3321 251.503 49.1666 250.451 49.6479C249.4 50.1293 248.175 50.2773 246.776 50.0922C245.388 49.8881 243.882 49.357 242.261 48.4986C241.808 48.2591 241.163 47.9054 240.324 47.4374C239.496 46.9506 238.478 46.3878 237.272 45.749C236.442 45.3099 235.626 44.8902 234.824 44.4899C234.033 44.0707 233.381 43.7502 232.871 43.5284L233.171 42.9628C233.794 43.2445 234.287 43.4086 234.648 43.4552C235.01 43.5018 235.328 43.3803 235.602 43.0909C235.894 42.8114 236.221 42.3323 236.58 41.6536L244.008 27.6272C244.378 26.9297 244.591 26.3907 244.647 26.0103C244.733 25.6211 244.645 25.2851 244.385 25.0023C244.153 24.7106 243.75 24.4007 243.175 24.0724L243.475 23.5069ZM251.547 28.5037C250.811 28.1145 250.246 28.0202 249.85 28.221C249.473 28.4317 249.024 29.0272 248.505 30.0075L241.077 44.0339C240.727 44.6938 240.51 45.2183 240.424 45.6076C240.358 46.0068 240.427 46.3329 240.631 46.5857C240.854 46.8485 241.238 47.1246 241.785 47.4141C243.143 48.1327 244.357 48.2325 245.429 47.7134C246.529 47.1855 247.499 46.1298 248.337 44.5462C249.106 43.0945 249.333 41.7782 249.017 40.5971C248.719 39.426 247.732 38.3964 246.054 37.5081L243.65 36.2356C243.65 36.2356 243.69 36.1602 243.77 36.0094C243.859 35.8397 243.904 35.7549 243.904 35.7549L246.337 37.0423C247.223 37.5114 248.011 37.6633 248.702 37.4981C249.403 37.314 250.033 36.9231 250.591 36.3253C251.159 35.7087 251.657 34.9951 252.087 34.1844C252.826 32.7893 253.163 31.6282 253.099 30.7011C253.044 29.7552 252.527 29.0227 251.547 28.5037Z" fill="#181306"/>
<path d="M269.366 45.3994C270.625 46.3157 271.559 47.3517 272.169 48.5076C272.779 49.6636 272.974 50.9534 272.756 52.3772C272.537 53.801 271.806 55.3665 270.563 57.0738C269.319 58.781 268.053 59.9575 266.765 60.6031C265.489 61.2315 264.208 61.4333 262.92 61.2087C261.632 60.984 260.358 60.4135 259.099 59.4973C257.874 58.6062 256.948 57.5764 256.321 56.4079C255.712 55.252 255.501 53.9645 255.69 52.5454C255.909 51.1216 256.64 49.5561 257.883 47.8488C259.127 46.1416 260.392 44.9651 261.681 44.3195C262.986 43.6864 264.283 43.4822 265.571 43.7069C266.876 43.9441 268.141 44.5083 269.366 45.3994ZM268.989 45.9168C268.299 45.4148 267.344 45.5117 266.125 46.2075C264.918 46.8861 263.473 48.3808 261.791 50.6916C260.108 53.0025 259.129 54.8361 258.854 56.1924C258.578 57.5487 258.786 58.4779 259.476 58.98C260.183 59.4945 261.131 59.4063 262.321 58.7151C263.528 58.0365 264.972 56.5418 266.655 54.231C268.338 51.9201 269.317 50.0866 269.592 48.7302C269.897 47.3692 269.696 46.4314 268.989 45.9168Z" fill="#181306"/>
<path d="M289.45 62.367C290.094 62.9899 290.534 63.5784 290.77 64.1325C291.035 64.6862 291.15 65.2122 291.112 65.7105C291.076 66.239 290.889 66.785 290.551 67.3486C290.228 67.9271 289.689 68.6071 288.932 69.3888L282.945 75.5733C282.321 76.217 282.006 76.7577 281.998 77.1952C282.005 77.6475 282.278 78.1332 282.814 78.6522L282.347 79.135C282.07 78.838 281.648 78.4 281.08 77.8212C280.527 77.227 279.967 76.6556 279.399 76.1069C278.817 75.5434 278.227 75.0027 277.629 74.4846C277.062 73.9661 276.626 73.5736 276.32 73.3072L276.787 72.8244C277.247 73.2693 277.681 73.4657 278.087 73.4138C278.494 73.3618 279.009 73.014 279.632 72.3702L286.554 65.2201C286.925 64.837 287.206 64.4704 287.396 64.1203C287.602 63.755 287.679 63.3993 287.628 63.0532C287.592 62.6918 287.374 62.3184 286.975 61.9328C286.561 61.5324 286.067 61.2767 285.491 61.1655C284.931 61.0692 284.344 61.1241 283.728 61.3303C283.143 61.5361 282.606 61.8918 282.116 62.3976L275.928 68.789C275.305 69.4328 274.974 69.9586 274.935 70.3664C274.912 70.7891 275.123 71.2155 275.568 71.6455L275.1 72.1283C274.839 71.8461 274.448 71.4378 273.926 70.9034C273.434 70.3686 272.904 69.8268 272.337 69.2781C271.754 68.7146 271.141 68.1516 270.498 67.5891C269.87 67.0113 269.395 66.5818 269.073 66.3005L269.541 65.8177C270.077 66.3367 270.564 66.5851 271.002 66.5628C271.454 66.5553 271.992 66.2297 272.615 65.586L279.627 58.3439C280.295 57.6542 280.677 57.0446 280.774 56.5151C280.901 55.9851 280.681 55.4458 280.113 54.8971L280.581 54.4143C281.027 54.9348 281.48 55.4175 281.94 55.8624C282.584 56.4852 283.205 57.0406 283.801 57.5284C284.428 58.0158 285.031 58.4357 285.61 58.7881L283.607 60.8572C284.747 60.4463 285.803 60.3987 286.774 60.7145C287.745 61.0303 288.637 61.5811 289.45 62.367Z" fill="#181306"/>
<path d="M278.965 84.5201L279.408 84.152C280.093 84.9418 280.945 85.3154 281.964 85.2728C282.967 85.2439 284.092 84.7113 285.339 83.675L295.823 74.9624C296.562 74.3488 297.008 73.7841 297.161 73.2682C297.331 72.7387 297.17 72.1787 296.679 71.5885L297.196 71.159C297.583 71.7246 297.982 72.2533 298.391 72.7452C298.951 73.4175 299.508 74.0366 300.062 74.6024C300.632 75.1545 301.187 75.637 301.724 76.0499L291.043 84.9261C290.141 85.6761 289.297 86.2799 288.513 86.7378C287.728 87.1957 286.964 87.5116 286.221 87.6856C285.477 87.8596 284.723 87.9038 283.958 87.8183C283.223 87.7357 282.432 87.4358 281.586 86.9189C280.753 86.4183 279.879 85.6187 278.965 84.5201ZM306.104 68.9567C306.678 69.6454 306.956 70.3297 306.939 71.0096C306.952 71.6922 306.663 72.2789 306.072 72.7698C305.481 73.2606 304.843 73.4443 304.158 73.3207C303.502 73.1998 302.887 72.7951 302.314 72.1064C301.741 71.4177 301.448 70.7321 301.435 70.0494C301.452 69.3696 301.756 68.7842 302.346 68.2934C302.937 67.8025 303.56 67.6175 304.216 67.7383C304.902 67.8619 305.531 68.2681 306.104 68.9567Z" fill="#181306"/>
<path d="M310.288 87.4121C311.158 88.7039 311.682 89.9972 311.859 91.2917C312.036 92.5863 311.778 93.8649 311.085 95.1274C310.392 96.39 309.169 97.6103 307.416 98.7883C305.663 99.9663 304.071 100.638 302.639 100.803C301.225 100.957 299.951 100.708 298.818 100.055C297.685 99.4035 296.683 98.4315 295.813 97.1397C294.967 95.8832 294.45 94.5988 294.261 93.2865C294.084 91.992 294.327 90.7105 294.99 89.4421C295.683 88.1796 296.906 86.9593 298.659 85.7813C300.412 84.6033 302.004 83.9316 303.436 83.7662C304.88 83.6186 306.168 83.8708 307.302 84.5228C308.447 85.1925 309.442 86.1556 310.288 87.4121ZM309.757 87.7691C309.281 87.0612 308.35 86.8253 306.966 87.0615C305.6 87.2857 303.73 88.1951 301.358 89.7896C298.985 91.3841 297.437 92.7712 296.714 93.9511C295.991 95.131 295.868 96.0748 296.344 96.7827C296.833 97.5082 297.754 97.7501 299.109 97.5081C300.475 97.2839 302.345 96.3745 304.717 94.78C307.09 93.1855 308.638 91.7983 309.361 90.6185C310.114 89.4444 310.246 88.4946 309.757 87.7691Z" fill="#181306"/>
<path d="M325.063 113.883L313.019 119.776C312.157 120.198 311.581 120.646 311.291 121.12C311.02 121.585 311.053 122.163 311.391 122.852L310.788 123.148C310.554 122.526 310.292 121.918 310 121.324C309.606 120.52 309.211 119.787 308.815 119.125C308.42 118.464 307.995 117.864 307.541 117.326L310.128 116.06C308.944 116.069 307.94 115.765 307.115 115.148C306.318 114.54 305.675 113.739 305.187 112.743C304.792 111.938 304.578 111.235 304.545 110.634C304.511 110.033 304.587 109.509 304.772 109.062C304.976 108.559 305.343 108.094 305.871 107.67C306.399 107.245 307.133 106.803 308.072 106.343L315.344 102.785C316.206 102.363 316.773 101.92 317.044 101.455C317.343 101 317.319 100.418 316.972 99.7089L317.576 99.4136C317.819 100.055 318.081 100.663 318.363 101.237C318.757 102.042 319.152 102.775 319.548 103.436C319.972 104.107 320.397 104.707 320.822 105.235L308.922 111.057C308.443 111.292 308.04 111.536 307.714 111.791C307.397 112.065 307.194 112.378 307.105 112.73C307.035 113.073 307.118 113.484 307.353 113.963C307.607 114.48 307.976 114.869 308.46 115.131C308.954 115.411 309.512 115.554 310.132 115.56C310.781 115.575 311.422 115.428 312.054 115.118L319.585 111.434C320.447 111.012 321.014 110.568 321.285 110.103C321.584 109.648 321.56 109.066 321.213 108.357L321.816 108.062C322.059 108.703 322.322 109.311 322.604 109.885C322.998 110.69 323.393 111.423 323.789 112.084C324.213 112.755 324.638 113.355 325.063 113.883Z" fill="#181306"/>
<path d="M331.707 131.23C331.929 131.876 331.968 132.449 331.824 132.949C331.7 133.442 331.458 133.852 331.096 134.179C330.742 134.526 330.333 134.779 329.868 134.938C329.122 135.194 328.43 135.183 327.793 134.905C327.183 134.641 326.757 134.155 326.514 133.449C326.272 132.743 326.252 132.13 326.457 131.609C326.688 131.101 327.097 130.747 327.682 130.546C328.247 130.352 328.753 130.314 329.199 130.432C329.673 130.563 330.107 130.775 330.501 131.068C330.484 130.758 330.377 130.479 330.179 130.231C329.987 129.869 329.701 129.561 329.32 129.308C328.96 129.048 328.547 128.863 328.08 128.752C327.634 128.634 327.164 128.581 326.672 128.592C326.2 128.596 325.762 128.667 325.358 128.805L317.336 131.555C316.367 131.887 315.791 132.344 315.608 132.925C315.431 133.527 315.506 134.302 315.832 135.25L315.196 135.468C315.057 134.997 314.844 134.314 314.559 133.42C314.295 132.518 313.996 131.583 313.663 130.615C313.386 129.808 313.085 128.998 312.76 128.184C312.456 127.364 312.22 126.746 312.055 126.329L312.69 126.111C312.933 126.817 313.254 127.259 313.654 127.438C314.061 127.637 314.688 127.591 315.536 127.301L325.071 124.033C325.979 123.721 326.597 123.352 326.923 122.924C327.277 122.51 327.326 121.929 327.069 121.183L327.705 120.965C327.866 121.631 328.051 122.267 328.259 122.872C328.55 123.72 328.851 124.496 329.161 125.202C329.498 125.92 329.845 126.568 330.201 127.145L327.386 128.11C328.014 128.166 328.62 128.319 329.202 128.57C329.785 128.822 330.288 129.168 330.71 129.61C331.153 130.044 331.485 130.584 331.707 131.23Z" fill="#181306"/>
<path d="M330.47 200.851C330.333 200.798 330.172 200.749 329.985 200.704C329.814 200.662 329.627 200.617 329.424 200.57C329.222 200.522 329.035 200.477 328.864 200.435C328.503 200.364 328.033 200.267 327.454 200.146C326.872 200.041 326.226 199.925 325.518 199.801C324.825 199.678 324.116 199.553 323.391 199.426C322.683 199.301 322.02 199.191 321.403 199.097C320.786 199.002 320.106 198.898 319.363 198.784C318.633 198.688 317.902 198.592 317.172 198.496C316.454 198.419 315.787 198.333 315.17 198.238C314.566 198.162 314.082 198.095 313.718 198.04C312.991 197.928 312.43 197.753 312.036 197.515C311.641 197.276 311.387 196.987 311.272 196.645C311.139 196.318 311.112 195.941 311.193 195.517C311.279 195.061 311.486 194.567 311.814 194.035C312.127 193.501 312.514 193.002 312.976 192.539C313.435 192.091 313.933 191.739 314.469 191.482C315.006 191.224 315.536 191.136 316.058 191.216C316.769 191.325 317.415 191.699 317.994 192.338C318.57 192.992 319.069 193.797 319.49 194.751C319.909 195.721 320.208 196.722 320.388 197.752C320.613 198.887 320.723 200.028 320.717 201.176C320.728 202.326 320.645 203.365 320.47 204.292C320.253 205.44 319.864 206.424 319.302 207.243C318.738 208.079 318.052 208.694 317.245 209.088C316.451 209.5 315.58 209.633 314.631 209.488C313.682 209.342 312.881 209.017 312.228 208.512C311.571 208.024 311.07 207.364 310.722 206.534C310.371 205.72 310.164 204.75 310.1 203.624C310.087 203.088 310.114 202.559 310.181 202.035C310.228 201.525 310.275 201.063 310.321 200.649L312.367 200.283C312.268 200.721 312.182 201.177 312.108 201.651C312.032 202.141 312 202.613 312.012 203.068C312.007 203.779 312.099 204.456 312.287 205.1C312.487 205.762 312.806 206.312 313.244 206.751C313.679 207.206 314.252 207.488 314.964 207.597C315.644 207.702 316.247 207.608 316.774 207.317C317.301 207.026 317.741 206.592 318.094 206.015C318.447 205.438 318.695 204.772 318.838 204.018C319.034 202.98 319.115 201.949 319.081 200.925C319.046 199.9 318.92 198.845 318.702 197.76C318.56 196.962 318.335 196.216 318.027 195.522C317.734 194.83 317.394 194.26 317.007 193.812C316.617 193.38 316.216 193.133 315.805 193.07C315.536 193.028 315.259 193.075 314.973 193.209C314.7 193.361 314.444 193.557 314.203 193.795C313.963 194.033 313.759 194.293 313.592 194.575C313.441 194.859 313.344 195.111 313.303 195.331C313.252 195.598 313.308 195.817 313.472 195.988C313.632 196.174 313.909 196.298 314.305 196.358C314.763 196.429 315.397 196.518 316.207 196.626C317.032 196.736 317.921 196.856 318.873 196.986C319.841 197.118 320.759 197.251 321.629 197.384C322.309 197.489 323.037 197.6 323.812 197.719C324.584 197.854 325.333 197.977 326.061 198.088C326.785 198.215 327.424 198.322 327.978 198.406C328.528 198.507 328.922 198.576 329.16 198.612C329.318 198.636 329.501 198.656 329.71 198.672C329.931 198.706 330.146 198.731 330.355 198.747C330.563 198.762 330.734 198.764 330.866 198.752L330.47 200.851ZM326.455 207.758C326.047 208.278 325.565 208.851 325.007 209.477C324.465 210.106 323.921 210.702 323.375 211.265C322.827 211.844 322.358 212.298 321.971 212.627L320.635 211.428C320.973 211.188 321.342 210.873 321.742 210.481C322.157 210.092 322.57 209.67 322.982 209.215C323.409 208.763 323.811 208.315 324.188 207.871C324.58 207.43 324.915 207.036 325.192 206.691L326.455 207.758ZM327.492 193.357C327.291 193.99 327.132 194.532 327.014 194.983C326.909 195.452 326.815 195.907 326.732 196.347C326.622 196.929 326.53 197.586 326.457 198.319C326.383 199.052 326.321 199.811 326.27 200.595C326.236 201.383 326.221 202.149 326.227 202.894C326.245 203.657 326.287 204.343 326.351 204.951L324.491 204.715C324.465 204.08 324.452 203.374 324.452 202.598C324.468 201.824 324.503 201.036 324.557 200.236C324.607 199.451 324.668 198.7 324.738 197.982C324.809 197.265 324.893 196.647 324.991 196.128C325.119 195.452 325.235 194.88 325.34 194.411C325.442 193.957 325.555 193.53 325.68 193.128L327.492 193.357Z" fill="#181306"/>
<path d="M311.523 245.168C311.104 245.724 310.707 246.274 310.333 246.818C309.959 247.361 309.582 247.938 309.203 248.551C308.445 249.775 307.741 251.017 307.091 252.278C306.441 253.539 305.903 254.74 305.477 255.882L303.826 255.052C304.315 253.87 304.891 252.652 305.555 251.399C306.21 250.159 306.906 248.93 307.642 247.712C308.004 247.127 308.372 246.563 308.746 246.02C309.112 245.49 309.501 244.937 309.915 244.36L311.523 245.168ZM310.938 254.239C310.741 254.104 310.543 253.969 310.345 253.834C310.139 253.712 309.933 253.591 309.727 253.47C309.478 253.327 309.158 253.148 308.766 252.933C308.374 252.718 307.95 252.496 307.492 252.266C307.049 252.043 306.613 251.824 306.184 251.608C305.369 251.199 304.546 250.803 303.715 250.42C302.883 250.038 302.068 249.673 301.271 249.326C300.474 248.978 299.724 248.646 299.021 248.328C298.324 248.031 297.696 247.743 297.139 247.462C296.71 247.247 296.326 246.974 295.987 246.643C295.64 246.326 295.386 245.948 295.226 245.511C295.057 245.087 295.023 244.597 295.124 244.042C295.202 243.492 295.452 242.877 295.873 242.197C296.724 240.823 297.648 239.906 298.647 239.444C299.636 238.997 300.61 239.013 301.568 239.495C302.168 239.797 302.611 240.233 302.894 240.804C303.184 241.395 303.282 242.069 303.189 242.825C303.087 243.594 302.759 244.428 302.202 245.326C301.663 246.196 301.063 246.938 300.402 247.551C299.747 248.185 299.058 248.722 298.336 249.161C297.62 249.622 296.894 250.006 296.159 250.315C295.439 250.63 294.744 250.905 294.074 251.139L293.193 249.519C294.346 249.171 295.41 248.77 296.386 248.315C297.353 247.873 298.222 247.347 298.994 246.736C299.767 246.126 300.418 245.392 300.949 244.535C301.429 243.76 301.656 243.044 301.631 242.389C301.611 241.755 301.344 241.309 300.83 241.05C300.286 240.777 299.721 240.796 299.135 241.108C298.562 241.427 298.049 241.953 297.594 242.688C297.231 243.273 297.053 243.772 297.06 244.185C297.058 244.612 297.19 244.973 297.458 245.268C297.716 245.577 298.082 245.849 298.553 246.087C298.939 246.281 299.47 246.529 300.144 246.833C300.818 247.136 301.554 247.461 302.352 247.809C303.163 248.163 303.985 248.531 304.816 248.914C305.648 249.296 306.421 249.667 307.136 250.026C307.865 250.393 308.551 250.738 309.195 251.061C309.838 251.385 310.345 251.64 310.717 251.827C310.903 251.92 311.121 252.021 311.373 252.13C311.639 252.245 311.873 252.336 312.076 252.403L310.938 254.239ZM317.053 244.095C316.964 243.997 316.843 243.874 316.691 243.726C316.545 243.599 316.391 243.468 316.231 243.334C316.062 243.214 315.921 243.107 315.81 243.015C315.46 242.733 315.036 242.403 314.537 242.028C314.045 241.673 313.506 241.287 312.922 240.868C312.352 240.457 311.763 240.045 311.156 239.633C310.555 239.241 309.967 238.874 309.392 238.532C308.817 238.189 308.286 237.895 307.8 237.651C307.285 237.392 306.784 237.158 306.295 236.948C305.798 236.752 305.264 236.555 304.693 236.357C304.954 236.631 305.229 236.929 305.516 237.252C305.804 237.575 306.091 237.898 306.379 238.221C306.658 238.557 306.906 238.852 307.125 239.104L305.92 239.596C305.535 239.188 305.099 238.728 304.611 238.215C304.128 237.723 303.663 237.248 303.215 236.791C302.773 236.355 302.394 236.013 302.079 235.765C301.953 235.666 301.805 235.556 301.636 235.436C301.459 235.329 301.302 235.249 301.164 235.198C301.064 235.148 300.943 235.087 300.8 235.015C300.649 234.957 300.511 234.906 300.389 234.862L301.166 233.38C302.064 233.564 303.136 233.862 304.381 234.273C305.631 234.706 306.979 235.285 308.422 236.011C309.223 236.413 310.031 236.864 310.847 237.363C311.668 237.883 312.464 238.399 313.234 238.911C313.996 239.437 314.69 239.92 315.317 240.36C315.95 240.821 316.468 241.197 316.869 241.487C317.095 241.637 317.335 241.793 317.59 241.957C317.845 242.121 318.086 242.26 318.315 242.375L317.053 244.095Z" fill="#181306"/>
<path d="M282.927 289.562C282.827 289.438 282.689 289.263 282.512 289.038C282.323 288.823 282.134 288.596 281.946 288.36C281.745 288.133 281.561 287.934 281.392 287.763C281.011 287.375 280.545 286.902 279.996 286.343C279.446 285.783 278.885 285.213 278.313 284.631C277.853 284.163 277.302 283.626 276.66 283.018C276.017 282.432 275.363 281.824 274.699 281.193C274.022 280.573 273.385 279.982 272.788 279.42C272.189 278.88 271.711 278.427 271.352 278.062C271.004 277.708 270.736 277.322 270.546 276.902C270.369 276.494 270.3 276.061 270.339 275.602C270.366 275.153 270.531 274.685 270.834 274.199C271.138 273.713 271.602 273.22 272.227 272.721C273.09 272.033 273.949 271.51 274.804 271.154C275.659 270.797 276.477 270.654 277.258 270.722C278.039 270.812 278.749 271.182 279.388 271.833C279.893 272.346 280.184 272.948 280.261 273.64C280.339 274.332 280.151 275.082 279.697 275.892C279.255 276.713 278.496 277.553 277.42 278.411C276.495 279.15 275.505 279.766 274.451 280.261C273.385 280.765 272.314 281.162 271.237 281.452C270.147 281.751 269.087 281.955 268.057 282.065C267.025 282.196 266.081 282.257 265.224 282.248L264.846 280.229C265.735 280.294 266.682 280.281 267.687 280.191C268.692 280.123 269.707 279.964 270.734 279.715C271.772 279.477 272.775 279.135 273.743 278.689C274.709 278.264 275.604 277.722 276.43 277.064C277.405 276.285 278.016 275.544 278.26 274.84C278.505 274.135 278.398 273.549 277.938 273.081C277.478 272.614 276.869 272.448 276.11 272.585C275.363 272.733 274.54 273.166 273.639 273.885C272.951 274.434 272.579 274.985 272.521 275.54C272.475 276.106 272.744 276.686 273.327 277.279C273.642 277.599 274.069 278.011 274.61 278.516C275.162 279.032 275.754 279.588 276.385 280.184C277.015 280.78 277.629 281.359 278.226 281.921C278.835 282.495 279.358 283.004 279.795 283.449C280.12 283.779 280.474 284.139 280.855 284.527C281.237 284.915 281.607 285.291 281.966 285.656C282.336 286.033 282.645 286.336 282.893 286.565C283.095 286.771 283.309 286.977 283.535 287.184C283.771 287.402 283.992 287.592 284.197 287.755C284.4 287.939 284.571 288.067 284.709 288.14L282.927 289.562ZM280.502 285.359C280.189 285.608 279.782 285.943 279.28 286.364C278.779 286.784 278.239 287.246 277.661 287.747C277.083 288.249 276.511 288.757 275.944 289.27C275.389 289.795 274.883 290.29 274.426 290.756L273.108 289.518C273.576 289.063 274.099 288.574 274.678 288.051C275.245 287.537 275.812 287.024 276.378 286.511C276.956 286.009 277.502 285.543 278.016 285.112C278.518 284.692 278.931 284.352 279.256 284.092L280.502 285.359Z" fill="#181306"/>
<path d="M230.106 308.559C230.382 309.171 230.791 309.65 231.333 309.996C231.865 310.361 232.484 310.568 233.188 310.615C233.884 310.683 234.616 310.577 235.382 310.296C236.253 309.977 237.042 309.611 237.749 309.199C238.456 308.787 239.085 308.378 239.637 307.971C240.174 307.571 240.642 307.229 241.04 306.948C241.339 306.719 241.628 306.486 241.905 306.248C242.168 306.016 242.408 305.792 242.626 305.576L244.131 307.395C243.828 307.54 243.51 307.708 243.176 307.898C242.827 308.094 242.503 308.289 242.206 308.483C241.718 308.798 241.157 309.165 240.523 309.584C239.875 310.009 239.167 310.438 238.4 310.872C237.618 311.312 236.799 311.689 235.942 312.003C234.876 312.393 233.836 312.554 232.824 312.483C231.811 312.412 230.9 312.1 230.09 311.547C229.271 311.014 228.628 310.23 228.161 309.195C227.621 307.999 227.395 306.841 227.485 305.721C227.58 304.615 227.939 303.549 228.561 302.522C229.175 301.515 230.003 300.558 231.045 299.648C232.088 298.739 233.292 297.916 234.657 297.178L236.422 298.468C235.142 299.124 234.011 299.836 233.027 300.605C232.05 301.388 231.27 302.2 230.688 303.043C230.09 303.891 229.737 304.776 229.629 305.7C229.506 306.629 229.665 307.582 230.106 308.559ZM244.016 314.932C243.34 315.027 242.548 315.173 241.639 315.37C240.715 315.573 239.772 315.791 238.81 316.025C237.839 316.279 236.934 316.525 236.097 316.764C235.244 317.009 234.54 317.233 233.984 317.437L233.494 315.653C234.145 315.466 234.904 315.247 235.771 314.997C236.631 314.767 237.531 314.531 238.471 314.288C239.404 314.065 240.314 313.85 241.201 313.644C242.08 313.458 242.866 313.297 243.558 313.163L244.016 314.932Z" fill="#181306"/>
<path d="M194.623 328.052C193.754 327.999 192.782 327.976 191.709 327.982C190.619 327.989 189.475 328.022 188.277 328.082C187.51 328.121 186.744 328.175 185.979 328.246C185.198 328.317 184.457 328.394 183.757 328.478C183.041 328.562 182.397 328.65 181.826 328.743L181.704 326.779C182.244 326.703 182.873 326.624 183.589 326.54C184.305 326.456 185.061 326.378 185.858 326.306C186.64 326.25 187.399 326.204 188.134 326.167C189.349 326.106 190.477 326.074 191.518 326.069C192.56 326.065 193.555 326.079 194.502 326.111L194.623 328.052ZM193.066 318.446C193.197 317.975 193.288 317.506 193.339 317.039C193.392 316.588 193.404 316.147 193.378 315.716C193.32 314.789 192.81 314.062 191.848 313.534C190.871 313.022 189.423 312.815 187.506 312.911C186.387 312.967 185.326 313.052 184.324 313.167C183.306 313.298 182.378 313.457 181.54 313.643C180.686 313.83 179.961 314.035 179.366 314.257L179.214 312.198C179.781 312.026 180.483 311.854 181.322 311.684C182.144 311.498 183.065 311.348 184.084 311.233C185.101 311.101 186.185 311.007 187.336 310.949C188.95 310.868 190.343 310.974 191.515 311.268C192.688 311.561 193.599 312.036 194.248 312.692C194.898 313.348 195.254 314.18 195.317 315.186C195.355 315.808 195.336 316.402 195.259 316.967C195.181 317.531 195.102 318.056 195.019 318.541L193.066 318.446ZM181.318 331.412C181.092 331.135 180.847 330.802 180.583 330.415C180.319 330.044 180.063 329.656 179.813 329.253C179.549 328.865 179.327 328.516 179.147 328.205L180.405 327.541C180.675 328.024 181.014 328.575 181.421 329.196C181.828 329.816 182.214 330.349 182.578 330.796L181.318 331.412ZM178.74 332.502C178.498 332.21 178.236 331.871 177.956 331.484C177.676 331.098 177.403 330.711 177.139 330.324C176.875 329.953 176.662 329.619 176.5 329.323L177.782 328.682C178.071 329.196 178.417 329.747 178.823 330.336C179.213 330.941 179.597 331.458 179.977 331.887L178.74 332.502Z" fill="#181306"/>
<path d="M129.418 327.578C129.294 327.268 129.182 326.895 129.08 326.458C128.962 326.018 128.853 325.58 128.751 325.144C128.634 324.704 128.546 324.304 128.488 323.944L129.913 323.702C129.956 324.058 130.028 324.454 130.13 324.89C130.232 325.326 130.341 325.764 130.459 326.204C130.576 326.644 130.702 327.029 130.836 327.358L129.418 327.578ZM126.576 327.868C126.446 327.523 126.323 327.131 126.205 326.691C126.072 326.247 125.947 325.805 125.83 325.365C125.713 324.925 125.628 324.543 125.576 324.217L127.001 323.975C127.093 324.556 127.229 325.182 127.41 325.852C127.572 326.533 127.759 327.13 127.971 327.642L126.576 327.868ZM136.318 326.284C136.317 326.564 136.322 326.878 136.334 327.226C136.33 327.57 136.336 327.909 136.352 328.242L134.278 327.98C134.346 327.536 134.395 327.014 134.427 326.413C134.438 325.823 134.438 325.214 134.428 324.587C134.412 323.974 134.396 323.394 134.377 322.847C134.321 321.764 134.169 320.666 133.921 319.552C133.674 318.438 133.403 317.484 133.109 316.688C133.019 316.435 132.92 316.181 132.814 315.924C132.703 315.683 132.59 315.45 132.475 315.224L133.803 314.143C134.06 314.289 134.412 314.449 134.859 314.625C135.307 314.8 135.788 314.976 136.303 315.151C136.812 315.342 137.325 315.525 137.839 315.701C138.354 315.876 138.824 316.033 139.25 316.17L138.651 317.652C138.21 317.511 137.755 317.358 137.288 317.194C136.804 317.026 136.35 316.874 135.924 316.736C135.482 316.595 135.137 316.469 134.886 316.359C135.064 316.929 135.243 317.581 135.421 318.316C135.6 319.051 135.761 319.814 135.906 320.606C136.03 321.41 136.12 322.189 136.176 322.943C136.226 323.662 136.257 324.303 136.271 324.866C136.284 325.429 136.3 325.901 136.318 326.284ZM145.384 326.608C144.125 326.134 142.899 325.718 141.705 325.36C140.496 324.997 139.343 324.698 138.246 324.462C137.133 324.222 136.12 324.039 135.207 323.914C134.567 323.823 133.888 323.747 133.172 323.687C132.436 323.638 131.703 323.606 130.973 323.591C130.223 323.588 129.522 323.614 128.872 323.668L129.21 321.802C129.8 321.782 130.443 321.783 131.137 321.806C131.827 321.843 132.514 321.888 133.199 321.941C133.88 322.009 134.511 322.074 135.094 322.134C136.636 322.332 138.319 322.646 140.142 323.076C141.96 323.522 143.877 324.083 145.893 324.758L145.384 326.608ZM143.986 318.393C144.499 317.91 144.935 317.433 145.295 316.962C145.649 316.506 145.908 316.01 146.07 315.474C146.398 314.386 146.157 313.472 145.347 312.73C144.536 311.988 143.263 311.397 141.527 310.954C140.351 310.649 139.251 310.421 138.229 310.269C137.186 310.128 136.233 310.051 135.37 310.037L135.995 308.216C136.763 308.272 137.66 308.369 138.687 308.506C139.714 308.642 140.877 308.879 142.178 309.214C143.639 309.572 144.86 310.061 145.841 310.68C146.822 311.299 147.502 312.033 147.879 312.883C148.257 313.732 148.291 314.67 147.981 315.696C147.786 316.339 147.495 316.942 147.108 317.505C146.701 318.08 146.232 318.664 145.702 319.258L143.986 318.393Z" fill="#181306"/>
<path d="M94.7396 312.211C94.8826 312.075 95.0544 311.9 95.2551 311.687C95.4422 311.465 95.6361 311.248 95.8369 311.035C96.024 310.813 96.1801 310.619 96.3054 310.453C96.6178 310.066 96.9666 309.616 97.3521 309.105C97.7142 308.599 98.0957 308.067 98.4963 307.509C98.8738 306.956 99.2375 306.395 99.5876 305.825C100.278 304.698 100.797 303.653 101.145 302.689C101.483 301.738 101.637 300.927 101.606 300.254C101.561 299.573 101.3 299.087 100.822 298.794C100.563 298.635 100.228 298.589 99.819 298.656C99.3999 298.736 98.9415 298.894 98.4437 299.131C97.9226 299.372 97.4 299.668 96.8757 300.019C96.3281 300.375 95.8147 300.751 95.3353 301.149L95.072 298.999C96.3004 298.164 97.367 297.557 98.2719 297.177C99.1534 296.802 99.9185 296.607 100.567 296.593C101.202 296.571 101.752 296.702 102.216 296.986C102.857 297.379 103.314 297.976 103.587 298.778C103.85 299.593 103.829 300.626 103.524 301.876C103.209 303.14 102.525 304.654 101.473 306.419C101.118 307.023 100.714 307.663 100.264 308.339C99.7998 309.007 99.3529 309.64 98.9233 310.235C98.4801 310.823 98.1187 311.302 97.8393 311.672C97.6755 311.89 97.4703 312.175 97.2238 312.528C96.9773 312.881 96.8014 313.194 96.6962 313.465L94.7396 312.211ZM84.4801 305.146C84.4393 304.487 84.4767 303.763 84.5925 302.975C84.6849 302.191 84.8452 301.383 85.0734 300.552C85.2782 299.725 85.5365 298.894 85.8481 298.058C86.1461 297.213 86.4919 296.398 86.8854 295.612C87.2556 294.83 87.6475 294.099 88.0611 293.419L90.1755 293.789C89.6022 294.707 89.0806 295.677 88.6108 296.696C88.1313 297.728 87.7237 298.758 87.388 299.784C87.0426 300.824 86.7835 301.842 86.6107 302.838C86.4379 303.834 86.39 304.756 86.4669 305.606L84.4801 305.146Z" fill="#181306"/>
<path d="M45.6638 276.796C45.8572 276.706 46.0706 276.602 46.3039 276.484C46.527 276.355 46.7901 276.199 47.0932 276.016C47.2929 275.883 47.5975 275.689 48.007 275.435C48.4064 275.169 48.859 274.867 49.3649 274.53C49.8574 274.201 50.3567 273.869 50.8625 273.531C51.3684 273.194 51.8343 272.883 52.2603 272.599C52.926 272.156 53.6147 271.677 54.3266 271.164C55.0385 270.651 55.7253 270.146 56.3871 269.647C57.0489 269.148 57.6558 268.696 58.2079 268.29C58.7601 267.883 59.2025 267.569 59.5353 267.347C60.0013 267.037 60.5336 266.844 61.1323 266.77C61.7208 266.684 62.3462 266.793 63.0086 267.098C63.6741 267.381 64.342 267.931 65.0124 268.747C66.1093 270.082 66.6943 271.271 66.7674 272.313C66.8537 273.346 66.4177 274.182 65.4592 274.821C64.8468 275.229 64.1772 275.417 63.4503 275.385C62.7133 275.341 61.9542 275.082 61.1732 274.607C60.3788 274.142 59.6159 273.464 58.8846 272.574C58.0822 271.598 57.4571 270.598 57.0092 269.577C56.5379 268.552 56.194 267.556 55.9777 266.591C55.7613 265.625 55.631 264.727 55.5866 263.895C55.5289 263.072 55.5126 262.375 55.5375 261.804L57.6561 261.712C57.5755 262.416 57.5506 263.188 57.5817 264.029C57.6026 264.857 57.7025 265.718 57.8814 266.613C58.0501 267.496 58.3377 268.385 58.7443 269.281C59.1274 270.174 59.6642 271.04 60.3549 271.881C61.0862 272.771 61.8046 273.345 62.51 273.601C63.2053 273.846 63.786 273.813 64.2519 273.502C64.5448 273.307 64.7466 273.038 64.8573 272.696C64.9547 272.364 64.9193 271.957 64.7508 271.476C64.5824 270.995 64.2494 270.452 63.7517 269.846C63.4571 269.487 63.1414 269.191 62.8044 268.956C62.4542 268.731 62.0815 268.615 61.6863 268.611C61.281 268.594 60.8521 268.737 60.3995 269.038C60.0134 269.296 59.5243 269.641 58.9323 270.074C58.3167 270.504 57.673 270.961 57.0011 271.448C56.3158 271.943 55.6572 272.42 55.0252 272.88C54.383 273.327 53.8423 273.697 53.403 273.99C52.9504 274.292 52.4911 274.598 52.0251 274.909C51.5459 275.228 51.0733 275.543 50.6074 275.854C50.1414 276.165 49.6954 276.462 49.2694 276.746C48.8333 277.018 48.4421 277.269 48.096 277.5C47.9363 277.606 47.735 277.75 47.4922 277.931C47.2494 278.112 47.0716 278.259 46.9588 278.373L45.6638 276.796ZM53.6755 282.448C53.4748 282.103 53.2336 281.709 52.9516 281.266C52.6697 280.822 52.3725 280.36 52.0602 279.88C51.7243 279.395 51.4021 278.941 51.0935 278.515C50.7615 278.086 50.4685 277.717 50.2146 277.407C49.2497 276.233 48.2179 275.065 47.1192 273.903C46.0104 272.729 44.8568 271.613 43.6586 270.556L45.1316 269.603C45.7701 270.229 46.4593 270.918 47.1994 271.668C47.9395 272.419 48.6865 273.203 49.4406 274.02C50.1845 274.825 50.8967 275.642 51.5772 276.47C51.9327 276.903 52.3343 277.429 52.7818 278.049C53.2294 278.669 53.6653 279.288 54.0894 279.904C54.5034 280.508 54.8529 281.022 55.138 281.444L53.6755 282.448ZM57.9851 279.718C57.7641 279.349 57.5126 278.942 57.2307 278.499C56.9488 278.055 56.6434 277.608 56.3145 277.158C55.9857 276.707 55.672 276.276 55.3737 275.862C55.0619 275.458 54.7791 275.101 54.5252 274.792C53.7838 273.889 53.0477 273.031 52.3172 272.217C51.5631 271.4 50.8109 270.609 50.0607 269.847C49.287 269.081 48.5035 268.34 47.7102 267.625L49.2231 266.645C49.8241 267.201 50.4118 267.766 50.9862 268.34C51.5372 268.91 52.0865 269.491 52.6343 270.083C53.1719 270.662 53.7181 271.264 54.2729 271.889C54.8042 272.511 55.3593 273.174 55.9383 273.878C56.2836 274.299 56.6715 274.796 57.1019 275.37C57.5222 275.932 57.946 276.51 58.3732 277.106C58.7903 277.689 59.1551 278.22 59.4675 278.701L57.9851 279.718Z" fill="#181306"/>
<path d="M18.4582 232.857C18.5353 232.835 18.6793 232.812 18.8901 232.787C19.0957 232.747 19.3014 232.706 19.507 232.666C19.692 232.615 19.8411 232.582 19.9542 232.567C20.2524 232.501 20.6559 232.398 21.1648 232.257C21.6737 232.116 22.2288 231.963 22.8302 231.796C23.4316 231.63 24.0407 231.461 24.6576 231.291C25.2692 231.105 25.8449 230.937 26.3846 230.788C26.9192 230.623 27.3715 230.49 27.7416 230.388L27.459 232.38C27.2431 232.44 26.9193 232.529 26.4875 232.649C26.0403 232.772 25.5314 232.913 24.9608 233.071C24.3749 233.233 23.7992 233.401 23.2338 233.574C22.6632 233.732 22.1415 233.884 21.6686 234.032C21.1957 234.179 20.8308 234.297 20.5738 234.384C20.2705 234.485 19.9853 234.589 19.7181 234.696C19.4354 234.807 19.2504 234.883 19.163 234.924L18.4582 232.857ZM25.7859 244.029C25.5742 243.408 25.3264 242.706 25.0425 241.923C24.7432 241.144 24.4284 240.32 24.0981 239.45C23.7626 238.565 23.4323 237.67 23.1071 236.766C22.7818 235.862 22.4695 234.995 22.1701 234.166C21.8656 233.323 21.592 232.545 21.3493 231.833C21.117 231.152 20.8846 230.47 20.6523 229.789C20.4199 229.107 20.2031 228.471 20.0017 227.88C19.7952 227.275 19.6222 226.743 19.4827 226.284C19.3227 225.814 19.1962 225.443 19.1032 225.171L20.8227 224.72C21.0087 225.365 21.2773 226.227 21.6284 227.306C21.959 228.375 22.4083 229.742 22.9762 231.408C23.3118 232.392 23.6783 233.418 24.0758 234.484C24.4526 235.54 24.8397 236.601 25.2372 237.668C25.6346 238.735 26.0371 239.767 26.4447 240.765C26.8318 241.751 27.2007 242.66 27.5515 243.491L25.7859 244.029ZM28.451 230.241C29.4688 229.959 30.3763 229.874 31.1735 229.985C31.9655 230.081 32.6215 230.347 33.1415 230.783C33.6563 231.204 34.0324 231.763 34.2699 232.459C34.43 232.929 34.5104 233.412 34.511 233.909C34.4911 234.395 34.3812 234.865 34.1813 235.318C33.9608 235.76 33.6477 236.153 33.2419 236.497C32.8156 236.831 32.294 237.083 31.6772 237.254C30.9062 237.467 30.158 237.475 29.4327 237.278C28.7073 237.081 28.0641 236.729 27.5029 236.221C26.9365 235.698 26.532 235.081 26.2893 234.369C25.9847 233.476 25.9425 232.684 26.1626 231.993C26.3622 231.291 26.765 230.691 27.3711 230.192C27.9618 229.697 28.7043 229.326 29.5987 229.078C30.3697 228.865 31.1949 228.761 32.0742 228.766C32.9484 228.756 33.8433 228.907 34.7591 229.217C35.6697 229.512 36.5831 230.013 37.4994 230.721C38.3951 231.417 39.2706 232.377 40.1259 233.598L39.1181 235.543C38.5203 234.581 37.8892 233.745 37.2249 233.034C36.5606 232.323 35.8553 231.764 35.1091 231.357C34.363 230.95 33.5707 230.706 32.7324 230.623C31.889 230.524 30.9892 230.608 30.0331 230.872C28.9845 231.162 28.3038 231.591 27.9909 232.158C27.678 232.725 27.6274 233.319 27.8391 233.94C27.9733 234.334 28.2001 234.677 28.5193 234.97C28.8231 235.267 29.1988 235.478 29.6463 235.603C30.0887 235.713 30.5643 235.697 31.0732 235.556C31.798 235.356 32.2834 234.973 32.5294 234.408C32.7703 233.827 32.7849 233.227 32.5732 232.606C32.4131 232.136 32.1452 231.771 31.7695 231.51C31.3783 231.254 30.8897 231.132 30.3035 231.145C29.6967 231.148 29.0053 231.322 28.2293 231.67L28.451 230.241Z" fill="#181306"/>
</svg>
