<svg xmlns="http://www.w3.org/2000/svg"><symbol id="scribble" viewBox="0 0 270 109" fill="none"><path d="M1.51636 106.964C16.2106 85.2013 31.7765 63.7537 48.1575 43.227C56.4344 32.8553 64.9503 22.6226 73.6614 12.613C76.6545 9.1737 85.4355 -0.864836 83.7422 3.36837C80.4811 11.5211 73.8935 19.6275 69.2946 26.9212C61.7147 38.9429 54.1724 50.9993 47.0425 63.2957C44.3292 67.9752 35.7082 79.2626 35.8468 85.5013C35.8934 87.5963 39.7511 83.7732 41.2821 82.3424C45.8512 78.0722 50.5069 72.8778 54.6612 68.3129C63.6624 58.422 72.5253 48.4152 81.7911 38.7673C82.9952 37.5136 95.8981 21.8324 99.4441 22.2757C100.122 22.3605 99.2922 23.6653 98.9796 24.2733C97.614 26.9285 89.8975 38.7573 89.224 39.7893C80.5316 53.1082 71.6127 66.2759 62.7909 79.5086C60.5968 82.7998 58.3802 86.0766 56.2407 89.4036C54.8917 91.5013 50.5952 97.3221 52.7101 96.0002C59.1387 91.9823 66.4485 80.6633 70.967 75.467C81.9537 62.8323 92.9561 50.1935 104.461 38.024C107.742 34.554 116.459 25.5302 120.721 21.9505C121.76 21.0774 122.82 19.9956 124.158 19.7671C124.677 19.6786 124.701 20.803 124.53 21.3001C121.735 29.4114 115.071 37.5659 110.547 44.6207C103.229 56.0307 95.643 67.3742 89.1311 79.2763C87.8745 81.5729 86.6432 83.8981 85.6934 86.3375C84.4176 89.6138 84.3103 91.1087 87.8768 88.8461C97.1765 82.9463 104.953 73.604 112.823 66.083C122.601 56.7386 132.452 47.5374 143.437 39.6035C146.626 37.3006 155.644 31.8333 154.54 35.6083C152.569 42.3455 147.195 49.4978 143.577 55.3054C137.265 65.4357 128.853 75.2444 123.694 86.0123C122.114 89.3084 129.408 81.4256 131.963 78.8118C140.5 70.0767 148.744 61.07 157.746 52.7968C162.051 48.8402 172.735 37.1401 180.183 37.7453C184.956 38.1331 182.319 48.4178 182.042 50.1953C181.506 53.6207 178.768 62.368 181.67 65.6185C186.404 70.9206 200.699 59.0611 202.575 57.7211C225.818 41.119 246.378 20.7612 268.263 2.43926" stroke-linecap="round"/></symbol><symbol id="semi-circle" viewBox="0 0 80 160" fill="none"><path d="M0 160C0 137.909 17.9086 120 40 120V120C62.0914 120 80 137.909 80 160V160H0V160Z" fill="hsl(45, 100%, 96%)"/><path d="M0 120C0 97.9086 17.9086 80 40 80V80C62.0914 80 80 97.9086 80 120V120H0V120Z" fill="hsl(45, 100%, 96%)"/><path d="M0 80C0 57.9086 17.9086 40 40 40V40C62.0914 40 80 57.9086 80 80V80H0V80Z" fill="hsl(45, 100%, 96%)"/><path d="M0 40C0 17.9086 17.9086 0 40 0V0C62.0914 0 80 17.9086 80 40V40H0V40Z" fill="hsl(45, 100%, 96%)"/></symbol><symbol id="cross" viewBox="0 0 48 48" fill="none"><path d="M47.8132 17.2367L41.7584 6.76329C39.8776 7.84541 32.0193 13.7069 27.1884 18.4734C28.9017 11.9034 30.0483 2.16425 30.0483 0H17.9517C17.9517 2.16425 19.0982 11.9163 20.8116 18.4734C15.9807 13.7069 8.10947 7.84541 6.24152 6.76329L0.186768 17.2367C2.06761 18.3188 11.0724 22.2093 17.6167 24C11.0724 25.8035 2.06761 29.6812 0.186768 30.7633L6.24152 41.2367C8.12236 40.1546 15.9807 34.2931 20.8116 29.5266C19.0982 36.0966 17.9517 45.8358 17.9517 48H30.0483C30.0483 45.8358 28.9017 36.0837 27.1884 29.5266C32.0193 34.2931 39.8905 40.1546 41.7584 41.2367L47.8132 30.7633C45.9323 29.6812 36.9275 25.7907 30.3832 24C36.9275 22.1965 45.9323 18.3188 47.8132 17.2367Z" fill="#181306"/></symbol><symbol id="flower" viewBox="0 0 261 260" fill="none"><path d="M138.989 127.588C300.42 84.3019 254.754 5.24637 136.609 123.454C254.816 5.24637 175.698 -40.3578 132.474 121.073C175.761 -40.3578 84.4272 -40.3578 127.651 121.073C84.3645 -40.4204 5.309 5.24636 123.454 123.391C5.309 5.24636 -40.3578 84.3019 121.073 127.588C-40.3578 84.3019 -40.3578 175.635 121.073 132.412C-40.3578 175.698 5.309 254.754 123.454 136.546C5.24637 254.754 84.3645 300.358 127.588 138.927C84.3019 300.358 175.635 300.358 132.412 138.927C175.698 300.358 254.754 254.691 136.546 136.546C254.754 254.754 300.358 175.635 138.927 132.412C300.42 175.635 300.42 84.3019 138.989 127.588Z" fill="hsl(150, 58%, 60%)"/></symbol></svg>