<svg viewBox="0 0 335 99" xmlns="http://www.w3.org/2000/svg"><g id="svgGroup" stroke-linecap="round" fill-rule="evenodd" font-size="9pt" stroke="#000" stroke-width="0.5mm" fill="none" style="stroke:#000;stroke-width:0.5mm;fill:none"><path transform="translate(2, 2)" d="M 0 55.8 L 0 3.8 L 17.2 3.8 L 17.2 56.4 Q 17.2 58.45 17.839 59.458 A 2.272 2.272 0 0 0 18.15 59.85 A 4.498 4.498 0 0 0 18.702 60.325 Q 19.364 60.8 20 60.8 A 8.404 8.404 0 0 0 20.354 60.793 Q 20.527 60.786 20.678 60.771 A 4.058 4.058 0 0 0 20.85 60.75 Q 21.118 60.712 21.532 60.645 A 77.381 77.381 0 0 0 21.8 60.6 L 23.8 73.2 Q 22.5 73.8 20.4 74.2 Q 18.3 74.6 15.4 74.6 A 23.264 23.264 0 0 1 11.858 74.347 Q 9.969 74.056 8.431 73.429 A 11.035 11.035 0 0 1 6.25 72.25 A 12.559 12.559 0 0 1 1.895 66.808 A 15.849 15.849 0 0 1 1.45 65.65 Q 0.044 61.529 0.001 56.138 A 42.788 42.788 0 0 1 0 55.8 Z" id="0"/><path transform="translate(2, 2)" d="M 52 74.6 Q 45.6 74.6 39.95 71.5 A 24.261 24.261 0 0 1 31.087 63.093 A 28.696 28.696 0 0 1 30.75 62.55 Q 27.2 56.7 27.2 48.4 Q 27.2 40.1 30.75 34.25 A 25.049 25.049 0 0 1 36.938 27.262 A 23.701 23.701 0 0 1 39.95 25.3 Q 45.6 22.2 52 22.2 Q 58.4 22.2 64.05 25.3 A 24.261 24.261 0 0 1 72.913 33.708 A 28.696 28.696 0 0 1 73.25 34.25 Q 76.8 40.1 76.8 48.4 Q 76.8 56.7 73.25 62.55 A 25.049 25.049 0 0 1 67.062 69.539 A 23.701 23.701 0 0 1 64.05 71.5 Q 58.4 74.6 52 74.6 Z M 52 60.8 A 7.327 7.327 0 0 0 53.861 60.576 A 5.337 5.337 0 0 0 56.2 59.3 A 7.027 7.027 0 0 0 57.602 57.425 Q 58.158 56.368 58.5 55 A 21.711 21.711 0 0 0 58.979 52.359 Q 59.145 50.993 59.186 49.449 A 39.018 39.018 0 0 0 59.2 48.4 Q 59.2 45.15 58.688 42.631 A 19.201 19.201 0 0 0 58.5 41.8 A 11.491 11.491 0 0 0 57.85 39.888 Q 57.384 38.847 56.735 38.069 A 6.367 6.367 0 0 0 56.2 37.5 A 5.442 5.442 0 0 0 53.388 36.12 A 7.72 7.72 0 0 0 52 36 A 7.327 7.327 0 0 0 50.139 36.225 A 5.337 5.337 0 0 0 47.8 37.5 A 7.027 7.027 0 0 0 46.398 39.376 Q 45.842 40.433 45.5 41.8 A 21.711 21.711 0 0 0 45.021 44.442 Q 44.855 45.808 44.814 47.351 A 39.018 39.018 0 0 0 44.8 48.4 Q 44.8 51.651 45.312 54.17 A 19.201 19.201 0 0 0 45.5 55 A 11.491 11.491 0 0 0 46.15 56.913 Q 46.616 57.954 47.265 58.732 A 6.367 6.367 0 0 0 47.8 59.3 A 5.442 5.442 0 0 0 50.612 60.681 A 7.72 7.72 0 0 0 52 60.8 Z" id="1"/><path transform="translate(2, 2)" d="M 91.4 39.8 L 85.4 28.8 Q 88.9 26.7 92.5 25.2 Q 96.1 23.7 99.8 22.95 Q 103.5 22.2 107.4 22.2 A 28.853 28.853 0 0 1 112.689 22.661 Q 115.916 23.263 118.55 24.65 A 16.039 16.039 0 0 1 125.085 31.08 A 20.141 20.141 0 0 1 125.7 32.25 A 22.229 22.229 0 0 1 127.319 36.938 Q 127.869 39.307 128.076 42.096 A 47.459 47.459 0 0 1 128.2 45.6 L 128.2 73.4 L 114.2 73.4 L 113 68.6 L 112.6 68.6 A 28.68 28.68 0 0 1 107.699 72.178 A 25.816 25.816 0 0 1 106.25 72.95 Q 102.9 74.6 98.8 74.6 A 17.16 17.16 0 0 1 94.834 74.163 A 13.087 13.087 0 0 1 90.75 72.45 Q 87.4 70.3 85.6 66.8 Q 83.8 63.3 83.8 59.2 Q 83.8 51.4 90.2 46.95 A 23.589 23.589 0 0 1 94.981 44.457 Q 101.1 42.032 111 41 A 8.138 8.138 0 0 0 110.745 39.669 Q 110.481 38.742 110 38.05 Q 109.2 36.9 107.7 36.35 Q 106.467 35.898 104.762 35.818 A 16.156 16.156 0 0 0 104 35.8 A 17.32 17.32 0 0 0 100.519 36.169 A 21.974 21.974 0 0 0 98.3 36.75 A 29.642 29.642 0 0 0 95.923 37.625 Q 93.838 38.488 91.4 39.8 Z M 111 58 L 111 51.2 A 43.506 43.506 0 0 0 108.608 51.614 Q 106.252 52.095 104.665 52.752 A 12.644 12.644 0 0 0 104.55 52.8 Q 103.02 53.451 102.063 54.229 A 5.28 5.28 0 0 0 101.2 55.1 A 5.221 5.221 0 0 0 100.534 56.215 A 3.972 3.972 0 0 0 100.2 57.8 A 3.853 3.853 0 0 0 100.369 58.97 A 3.017 3.017 0 0 0 101.4 60.45 A 3.983 3.983 0 0 0 102.693 61.116 Q 103.597 61.4 104.8 61.4 A 7.66 7.66 0 0 0 106.377 61.247 Q 107.429 61.025 108.247 60.486 A 4.862 4.862 0 0 0 108.3 60.45 A 12.74 12.74 0 0 0 109.927 59.128 A 16.264 16.264 0 0 0 111 58 Z" id="2"/><path transform="translate(2, 2)" d="M 169.2 27.2 L 168.6 20 L 168.6 3.8 L 185.8 3.8 L 185.8 73.4 L 171.8 73.4 L 170.6 68.8 L 170.2 68.8 A 21.37 21.37 0 0 1 164.93 72.634 A 24.283 24.283 0 0 1 164.3 72.95 Q 160.9 74.6 157.6 74.6 A 19.752 19.752 0 0 1 150.3 73.299 A 17.877 17.877 0 0 1 142.75 67.55 A 24.238 24.238 0 0 1 138.523 59.013 Q 137.541 55.521 137.288 51.367 A 48.778 48.778 0 0 1 137.2 48.4 Q 137.2 40.2 140.15 34.35 A 26.134 26.134 0 0 1 143.478 29.246 A 20.761 20.761 0 0 1 147.8 25.35 Q 152.5 22.2 157.6 22.2 A 20.491 20.491 0 0 1 160.415 22.382 Q 161.862 22.583 163.07 23.006 A 10.349 10.349 0 0 1 164.35 23.55 A 17.826 17.826 0 0 1 168.784 26.777 A 20.301 20.301 0 0 1 169.2 27.2 Z M 168.6 57 L 168.6 38.6 Q 167.1 37.2 165.3 36.7 A 13.619 13.619 0 0 0 162.818 36.244 A 11.904 11.904 0 0 0 161.8 36.2 A 5.597 5.597 0 0 0 158.829 37.065 A 7.033 7.033 0 0 0 158.4 37.35 Q 157.138 38.258 156.249 40.099 A 12.87 12.87 0 0 0 155.8 41.15 Q 155.1 43.005 154.89 45.716 A 32.234 32.234 0 0 0 154.8 48.2 Q 154.8 53.643 156.12 56.545 A 7.492 7.492 0 0 0 156.8 57.75 A 6.954 6.954 0 0 0 158.656 59.596 Q 160.11 60.553 162.012 60.598 A 7.976 7.976 0 0 0 162.2 60.6 Q 164.2 60.6 165.75 59.85 A 5.351 5.351 0 0 0 167.058 58.936 Q 167.565 58.464 168.04 57.826 A 11.598 11.598 0 0 0 168.6 57 Z" id="3"/><path transform="translate(2, 2)" d="M 214.6 73.4 L 197.4 73.4 L 197.4 23.4 L 214.6 23.4 L 214.6 73.4 Z M 203.019 16.856 A 12.236 12.236 0 0 0 206 17.2 Q 210.2 17.2 212.8 14.85 A 7.565 7.565 0 0 0 214.987 11.462 A 9.468 9.468 0 0 0 215.4 8.6 A 10.789 10.789 0 0 0 215.349 7.534 A 7.764 7.764 0 0 0 212.8 2.35 A 8.78 8.78 0 0 0 208.981 0.345 A 12.236 12.236 0 0 0 206 0 A 12.672 12.672 0 0 0 203.531 0.23 A 8.905 8.905 0 0 0 199.2 2.35 A 7.565 7.565 0 0 0 197.013 5.739 A 9.468 9.468 0 0 0 196.6 8.6 A 10.789 10.789 0 0 0 196.651 9.667 A 7.764 7.764 0 0 0 199.2 14.85 A 8.78 8.78 0 0 0 203.019 16.856 Z" id="4"/><path transform="translate(2, 2)" d="M 243.4 73.4 L 226.2 73.4 L 226.2 23.4 L 240.2 23.4 L 241.4 29.4 L 241.8 29.4 A 32.72 32.72 0 0 1 248.41 24.485 A 36.229 36.229 0 0 1 248.65 24.35 A 16.828 16.828 0 0 1 254.535 22.41 A 21.693 21.693 0 0 1 257.6 22.2 A 19.507 19.507 0 0 1 262.118 22.69 A 11.789 11.789 0 0 1 269.55 27.75 Q 272.514 32.257 273.071 39.236 A 42.3 42.3 0 0 1 273.2 42.6 L 273.2 73.4 L 256 73.4 L 256 44.8 A 30.087 30.087 0 0 0 255.934 42.726 Q 255.719 39.625 254.8 38.4 A 3.8 3.8 0 0 0 252.721 37.016 Q 251.955 36.8 251 36.8 A 9.532 9.532 0 0 0 249.247 36.953 Q 248.194 37.15 247.344 37.602 A 5.679 5.679 0 0 0 247 37.8 Q 245.783 38.561 244.334 39.785 A 39.539 39.539 0 0 0 243.4 40.6 L 243.4 73.4 Z" id="5"/><path transform="translate(2, 2)" d="M 288.6 72 L 288.6 71.6 Q 286.7 70.2 285.35 68.15 A 7.874 7.874 0 0 1 284.258 65.512 Q 284.024 64.465 284.002 63.253 A 13.943 13.943 0 0 1 284 63 A 9.108 9.108 0 0 1 284.872 59.157 A 11.56 11.56 0 0 1 285.55 57.9 Q 287.1 55.4 289.6 53.6 L 289.6 53.2 A 14.367 14.367 0 0 1 286.695 50.601 A 19.422 19.422 0 0 1 284.85 48.05 Q 282.8 44.7 282.8 40.4 A 20.719 20.719 0 0 1 283.284 35.801 A 14.675 14.675 0 0 1 285.85 30.15 Q 288.9 26.1 293.8 24.15 Q 298.7 22.2 304.2 22.2 Q 306.3 22.2 308.35 22.5 A 23.18 23.18 0 0 1 311.284 23.119 A 20.38 20.38 0 0 1 312.2 23.4 L 330.8 23.4 L 330.8 35.8 L 323.2 35.8 L 323.2 36.2 A 8.668 8.668 0 0 1 323.873 37.625 A 7.201 7.201 0 0 1 324.15 38.6 Q 324.4 39.8 324.4 41.2 Q 324.4 47 321.7 50.6 Q 319 54.2 314.4 55.9 A 27.407 27.407 0 0 1 307.685 57.426 A 33.962 33.962 0 0 1 304.2 57.6 A 21.583 21.583 0 0 1 302.641 57.542 A 25.991 25.991 0 0 1 301.65 57.45 A 20.993 20.993 0 0 1 300.402 57.271 Q 299.556 57.125 298.6 56.9 Q 297.9 57.6 297.65 58.15 A 2.187 2.187 0 0 0 297.518 58.548 Q 297.417 58.972 297.403 59.585 A 8.97 8.97 0 0 0 297.4 59.8 A 2.382 2.382 0 0 0 297.662 60.933 Q 297.931 61.44 298.475 61.797 A 3.634 3.634 0 0 0 299.05 62.1 A 6.444 6.444 0 0 0 300.14 62.439 Q 301.334 62.709 303.118 62.777 A 33.473 33.473 0 0 0 304.4 62.8 L 311.9 62.8 A 46.694 46.694 0 0 1 317.36 63.098 Q 322.909 63.754 326.45 65.85 Q 331.6 68.9 331.6 75.8 Q 331.6 81.2 328.05 85.3 Q 324.5 89.4 318 91.7 A 37.724 37.724 0 0 1 311.379 93.351 Q 307.328 94 302.6 94 A 45.677 45.677 0 0 1 296.472 93.605 A 37.074 37.074 0 0 1 292.1 92.75 A 21.655 21.655 0 0 1 288.522 91.495 Q 286.458 90.549 284.912 89.217 A 13.053 13.053 0 0 1 284.45 88.8 A 8.978 8.978 0 0 1 281.718 83.354 A 12.644 12.644 0 0 1 281.6 81.6 Q 281.6 78.5 283.4 76.15 A 12.79 12.79 0 0 1 285.559 73.97 Q 286.627 73.112 287.967 72.348 A 22.967 22.967 0 0 1 288.6 72 Z M 308.5 75.8 L 304.6 75.8 Q 302.303 75.8 300.856 75.712 A 22.761 22.761 0 0 1 300.05 75.65 Q 298.788 75.528 297.824 75.307 A 10.87 10.87 0 0 1 297.4 75.2 A 10.988 10.988 0 0 0 296.788 75.861 Q 296.503 76.198 296.286 76.52 A 5.527 5.527 0 0 0 296.05 76.9 A 3.439 3.439 0 0 0 295.665 78.01 A 4.638 4.638 0 0 0 295.6 78.8 A 3.291 3.291 0 0 0 296.99 81.556 Q 297.555 81.982 298.35 82.3 Q 301.1 83.4 305.4 83.4 A 24.389 24.389 0 0 0 307.972 83.271 A 17.734 17.734 0 0 0 310.4 82.85 Q 312.149 82.413 313.329 81.66 A 6.312 6.312 0 0 0 313.9 81.25 A 4.081 4.081 0 0 0 314.637 80.492 A 2.801 2.801 0 0 0 315.2 78.8 Q 315.2 76.927 313.664 76.37 A 3.228 3.228 0 0 0 313.45 76.3 A 10.303 10.303 0 0 0 312.215 76.037 Q 310.913 75.834 309.105 75.805 A 38.325 38.325 0 0 0 308.5 75.8 Z M 304.2 47.4 A 5.766 5.766 0 0 0 305.722 47.207 A 4.76 4.76 0 0 0 307 46.65 A 4.584 4.584 0 0 0 308.331 45.362 A 6.294 6.294 0 0 0 308.9 44.35 Q 309.6 42.8 309.6 40.4 A 12.953 12.953 0 0 0 309.475 38.532 Q 309.336 37.585 309.045 36.826 A 4.957 4.957 0 0 0 308.1 35.25 A 4.962 4.962 0 0 0 304.515 33.608 A 6.73 6.73 0 0 0 304.2 33.6 A 5.674 5.674 0 0 0 302.304 33.905 A 4.86 4.86 0 0 0 300.3 35.25 Q 299.212 36.447 298.913 38.617 A 13.105 13.105 0 0 0 298.8 40.4 A 13.572 13.572 0 0 0 298.89 42.016 Q 299.052 43.357 299.5 44.35 A 6.138 6.138 0 0 0 300.18 45.516 A 4.521 4.521 0 0 0 301.4 46.65 Q 302.6 47.4 304.2 47.4 Z" id="6"/></g></svg>