<svg xmlns="http://www.w3.org/2000/svg" xmlns:xlink="http://www.w3.org/1999/xlink"><!--LINES--><symbol id="lines" viewBox="0 0 375 85" fill="none"><path pathLength="100" d="M805.627 -62.0435C763.613 -113.562 831.423 -178.012 639 -132.196C446.577 -86.38 405.142 -12.2799 348.247 19.0379C283.789 54.5179 34.9934 -29.197 -0.563226 19.7612M798.975 -79.6529C752.199 -128.562 814.637 -195.85 625.331 -140.706C436.026 -85.5618 400.946 -10.0507 346.544 23.8599C284.912 62.2773 27.4992 -8.0466 -3.89877 42.2586M790.761 -96.7086C739.444 -142.801 796.25 -212.62 610.889 -148.42C425.528 -84.2209 396.937 -7.63694 345.262 28.7085C286.72 69.8844 21.8541 13.2208 -5.25932 64.6465M785.993 -105.161C732.454 -149.743 786.3 -220.731 603.258 -152.036C420.216 -83.341 394.974 -6.34108 344.773 31.1809C287.9 73.6896 19.6931 24.0671 -5.19617 75.9754M795.334 -87.6861C746.409 -135.305 806.249 -203.813 618.683 -144.407C431.117 -85.0005 399.051 -8.94649 345.893 26.1207C285.671 65.8484 24.6341 1.86994 -4.77877 52.7264" stroke="#181306" stroke-width="0.5"/></symbol><!--ABOUT-ME FRAME--><symbol id="about-me__frame" viewBox="0 0 1020 531" preserveAspectRatio="none" fill="none"><path pathLength="1" d="M2.18162 0.424644C2.18162 0.424644 2.18162 40.5641 47.8318 40.5641C82.3787 40.5641 971.063 40.7006 971.063 40.7006C971.063 40.7006 1018 40.7006 1018 80.3941C1018 120.088 1018 488.279 1018 488.279C1018 488.279 1018 527.081 971.063 527.527C932.15 527.911 634.58 527.457 474.585 527.457C474.585 527.457 433.704 527.457 433.704 485.157C433.704 442.858 433.704 240.246 433.704 103.726" stroke="#181306" stroke-width="2"/></symbol><!--STAR--><symbol id="star" viewBox="0 0 250 250" fill="none"><path fill="#E27A46" d="M123.562 1.48631C124.349 0.673579 125.651 0.673579 126.438 1.48631L140.966 16.5074C141.586 17.1479 142.554 17.3013 143.341 16.8836L161.801 7.08726C162.799 6.55722 164.039 6.95987 164.535 7.97574L173.711 26.7512C174.102 27.5518 174.976 27.997 175.853 27.8429L196.436 24.2303C197.55 24.0349 198.604 24.8008 198.763 25.9203L201.687 46.6123C201.812 47.4946 202.505 48.188 203.388 48.3127L224.08 51.2374C225.199 51.3957 225.965 52.4498 225.77 53.5635L222.157 74.1466C222.003 75.0242 222.448 75.8979 223.249 76.2892L242.024 85.465C243.04 85.9614 243.443 87.2006 242.913 88.1994L233.116 106.659C232.699 107.446 232.852 108.414 233.493 109.034L248.514 123.562C249.326 124.349 249.326 125.651 248.514 126.438L233.493 140.966C232.852 141.586 232.699 142.554 233.116 143.341L242.913 161.801C243.443 162.799 243.04 164.039 242.024 164.535L223.249 173.711C222.448 174.102 222.003 174.976 222.157 175.853L225.77 196.436C225.965 197.55 225.199 198.604 224.08 198.763L203.388 201.687C202.505 201.812 201.812 202.505 201.687 203.388L198.763 224.08C198.604 225.199 197.55 225.965 196.436 225.77L175.853 222.157C174.976 222.003 174.102 222.448 173.711 223.249L164.535 242.024C164.039 243.04 162.799 243.443 161.801 242.913L143.341 233.116C142.554 232.699 141.586 232.852 140.966 233.493L126.438 248.514C125.651 249.326 124.349 249.326 123.562 248.514L109.034 233.493C108.414 232.852 107.446 232.699 106.659 233.116L88.1994 242.913C87.2006 243.443 85.9614 243.04 85.465 242.024L76.2892 223.249C75.8979 222.448 75.0242 222.003 74.1466 222.157L53.5635 225.77C52.4498 225.965 51.3957 225.199 51.2374 224.08L48.3127 203.388C48.188 202.505 47.4946 201.812 46.6123 201.687L25.9203 198.763C24.8008 198.604 24.0349 197.55 24.2303 196.436L27.8429 175.853C27.997 174.976 27.5518 174.102 26.7512 173.711L7.97574 164.535C6.95987 164.039 6.55722 162.799 7.08726 161.801L16.8836 143.341C17.3013 142.554 17.1479 141.586 16.5074 140.966L1.48631 126.438C0.673579 125.651 0.673579 124.349 1.48631 123.562L16.5074 109.034C17.1479 108.414 17.3013 107.446 16.8836 106.659L7.08726 88.1994C6.55722 87.2006 6.95987 85.9614 7.97574 85.465L26.7512 76.2892C27.5518 75.8979 27.997 75.0242 27.8429 74.1466L24.2303 53.5635C24.0349 52.4498 24.8008 51.3957 25.9203 51.2374L46.6123 48.3127C47.4946 48.188 48.188 47.4946 48.3127 46.6123L51.2374 25.9203C51.3957 24.8008 52.4498 24.0349 53.5635 24.2303L74.1466 27.8429C75.0242 27.997 75.8979 27.5518 76.2892 26.7512L85.465 7.97574C85.9614 6.95987 87.2006 6.55722 88.1994 7.08726L106.659 16.8836C107.446 17.3013 108.414 17.1479 109.034 16.5074L123.562 1.48631Z"/></symbol><!--SPARK--><symbol id="spark" viewBox="0 0 227 204"><path fill="#E27A46" d="M226.1 101.614c-103.893 4.573-107.963 8.231-113.05 101.612-5.087-93.381-9.157-97.039-113.05-101.612C103.893 97.042 107.963 93.384 113.05.002c5.087 93.382 9.157 97.04 113.05 101.612"/></symbol><!--DOTS PATH--><symbol id="dots-path" viewBox="0 0 1146 660" fill="none"><path stroke="#E27A46" stroke-dasharray="1 45" stroke-linecap="round" stroke-linejoin="round" stroke-width="15" d="M230 50H1095s39 0 39 50v97.073s0 50-39 50H51s-39 0-39 50v97.972s0 50 39 50h1044s39 0 39 50v99.77s0 50-39 50H570.5"/></symbol></svg>