<svg width="45" height="45" viewBox="0 0 45 45" fill="none" xmlns="http://www.w3.org/2000/svg"><mask id="mask0_442_388" style="mask-type:alpha" maskUnits="userSpaceOnUse" x="1" y="1" width="43" height="43"><circle cx="22.5" cy="22.5" r="21.5" fill="#FFFAEB"/></mask><g mask="url(#mask0_442_388)"><circle cx="22.5" cy="22.5" r="21.5" fill="#FFFAEB"/><path d="M18.3973 -12.7661C3.54212 -10.9302 -8.37058 -0.392541 -11.9458 14.002C-14.8348 25.6846 -11.7103 37.7595 -3.50304 46.5774C5.82154 56.5828 19.7832 60.4082 32.7175 56.482C38.5784 54.7237 44.4105 51.0915 48.455 46.7045C56.571 37.9318 59.6371 26.5553 57.1691 14.3726C56.6518 11.8537 54.5057 6.76836 52.6784 3.75927C49.7839 -0.978026 44.6921 -5.78194 39.5973 -8.60477C33.441 -12.0157 25.2255 -13.6418 18.3973 -12.7661ZM29.721 -10.1389C36.0984 -8.72692 41.8561 -5.52299 46.4881 -0.765834C51.4836 4.38679 54.582 10.7069 55.6302 17.9709C55.9703 20.1837 55.968 20.2379 55.3183 21.4586C53.1973 25.3306 47.2608 28.2255 43.529 27.1978C41.8098 26.7445 40.9642 26.1928 39.1921 24.4345C37.0555 22.3078 36.6736 22.3458 34.6577 25.028C34.0819 25.7905 33.4351 26.3057 32.9695 26.3944C32.339 26.5304 32.1267 26.4128 31.5626 25.6288C30.5653 24.1749 29.3193 22.819 28.9668 22.804C28.8041 22.7971 27.8758 23.5445 26.9135 24.4534C23.2903 27.8812 21.4015 27.5835 21.1117 23.5544C20.9078 20.696 19.9599 20.6285 18.4321 23.3316C17.2844 25.3995 15.459 27.4385 13.9532 28.3513C12.6712 29.1108 10.3094 29.7157 9.61367 29.4689C9.42734 29.3795 8.94391 29.2503 8.54067 29.1517C7.49364 28.8628 6.08499 27.5 6.55749 27.2487C6.75306 27.1214 7.1644 27.0303 7.46265 27.0431C8.41164 27.0836 11.2974 25.6597 12.3728 24.6471C13.4788 23.5545 14.331 22.0438 14.3738 21.0415C14.4212 19.9308 13.5301 18.5357 12.3377 17.8335C8.52116 15.608 3.87917 18.721 3.64046 23.6775L3.54397 25.3017L2.57596 25.0705C2.03715 24.9661 -0.157288 24.1939 -2.29518 23.3699C-7.79972 21.2353 -8.12393 21.1943 -10.7293 22.413C-11.117 22.5864 -10.8068 18.5015 -10.2574 15.811C-8.09939 5.34557 -1.49432 -3.03026 8.26833 -7.74317C11.0693 -9.08922 14.784 -10.2063 17.7626 -10.622C20.7399 -11.0106 26.7604 -10.7809 29.721 -10.1389ZM11.8477 19.7667C12.5757 20.5305 12.6258 21.2654 12.0384 22.2988C11.1874 23.7824 8.8768 25.0951 6.75035 25.2757C5.65886 25.392 5.55156 25.3603 5.41778 24.6761C5.06027 22.8696 6.31584 20.182 7.92314 19.4364C9.33833 18.7368 11.0702 18.8922 11.8477 19.7667ZM55.6328 26.8186C53.8847 41.0468 43.413 52.1888 28.9655 55.2905C25.4297 56.0353 19.5898 56.0304 15.8746 55.2476C4.91673 52.9617 -3.97889 45.6343 -8.37156 35.2694C-9.80195 31.8701 -10.2517 29.6797 -10.154 26.7528C-10.0863 24.5302 -10.0228 24.3158 -9.40546 23.8536C-8.42409 23.1356 -7.2357 23.2948 -3.97984 24.655C-1.07182 25.8919 2.65192 27.1092 3.51957 27.1462C3.79071 27.1578 4.31333 27.6415 4.72403 28.2018C5.64463 29.5438 6.01034 29.8851 7.31233 30.5649C8.71931 31.3305 11.0511 31.43 12.952 30.8055C14.6055 30.2518 17.189 28.2723 18.5137 26.5104L19.4051 25.3543L19.9 26.4881C20.4952 27.8163 21.473 28.4551 23.0185 28.521C24.4826 28.5835 25.8696 27.9099 27.5681 26.2997L28.9545 25.0018L29.7961 26.2862C30.7391 27.7377 31.5023 28.3131 32.5586 28.3853C33.5076 28.4258 34.9592 27.5107 36.0213 26.1718C36.4818 25.5673 36.9918 25.0734 37.1002 25.078C37.2098 25.0555 37.8646 25.6263 38.5418 26.3065C40.3646 28.1484 41.801 28.861 44.2355 29.1006C47.8053 29.47 51.5598 28.0561 54.5305 25.2789C55.1265 24.6801 55.7167 24.2168 55.798 24.2202C55.8794 24.2237 55.8026 25.3875 55.6328 26.8186Z" fill="#181306"/></g></svg>