<svg xmlns="http://www.w3.org/2000/svg">
	<symbol id="languages" viewBox="0 0 55 55">
		<path d="M19.6428 2.46411C20.7276 2.46411 21.6071 3.34356 21.6071 4.4284V8.37177C23.9234 8.40673 26.2248 8.50335 28.5099 8.66015C30.8917 8.82358 33.2556 9.05233 35.6002 9.34469C36.6766 9.47892 37.4406 10.4604 37.3062 11.5369C37.1721 12.6134 36.1905 13.3773 35.1141 13.2431C33.3868 13.0277 31.6483 12.8479 29.8996 12.7044C28.3522 18.7538 25.6824 24.3525 22.1255 29.2659C22.9554 30.2695 23.8278 31.237 24.7401 32.1654C25.5004 32.9391 25.4896 34.1826 24.716 34.9432C23.942 35.7035 22.6985 35.6928 21.938 34.9191C21.1448 34.1119 20.3792 33.2772 19.6428 32.4171C15.5279 37.2241 10.5008 41.2263 4.83005 44.1557C3.86622 44.6536 2.68126 44.2759 2.18332 43.3121C1.68542 42.3483 2.06313 41.1632 3.02697 40.6653C8.47928 37.8487 13.2841 33.9548 17.1601 29.2659C14.8918 26.1322 12.984 22.7198 11.4981 19.0891C11.0872 18.0851 11.568 16.9381 12.572 16.5272C13.576 16.1163 14.723 16.5971 15.1339 17.6011C16.3448 20.5596 17.8607 23.3615 19.6428 25.968C22.4319 21.8889 24.5693 17.3299 25.9055 12.4412C23.8312 12.3378 21.7432 12.2855 19.6428 12.2855C14.4024 12.2855 9.23904 12.6112 4.17157 13.2431C3.09507 13.3773 2.11355 12.6134 1.97932 11.5369C1.84507 10.4604 2.60894 9.47892 3.68545 9.34469C8.2791 8.77185 12.9479 8.44313 17.6785 8.37177V4.4284C17.6785 3.34356 18.5579 2.46411 19.6428 2.46411ZM37.3214 20.1427C38.0846 20.1427 38.7787 20.5847 39.1013 21.2763L52.8513 50.7405C53.3102 51.7237 52.8851 52.8926 51.9019 53.3512C50.919 53.81 49.7501 53.3849 49.2913 52.402L46.1536 45.6784H28.489L25.3513 52.402C24.8925 53.3849 23.7239 53.81 22.7407 53.3512C21.7576 52.8926 21.3326 51.7237 21.7914 50.7405L35.5413 21.2763C35.8642 20.5847 36.5582 20.1427 37.3214 20.1427ZM30.3223 41.7498H44.3203L37.3214 26.7518L30.3223 41.7498Z"/>
	</symbol>
	<symbol id="arrow-up" viewBox="-2.9 0 32 32">
		<path d="M0 15.872q0-.832.576-1.408l12.512-12.48 12.48 12.48q.576.576.576 1.408t-.576 1.376q-.576.576-1.376.576t-1.376-.576L15.04 9.472v20.544q0 .8-.576 1.376t-1.376.576q-.832 0-1.408-.576t-.544-1.376V9.472l-7.808 7.776q-.576.576-1.376.576t-1.376-.576Q0 16.704 0 15.872"/>
	</symbol>
	<symbol id="arrow-prev" viewBox="0 0 32 32">
		<path d="M0 15.904 12.48 3.392q.608-.576 1.408-.576t1.376.576.576 1.408-.576 1.376l-7.776 7.776h20.544q.8 0 1.376.576t.576 1.376-.576 1.376-1.376.576H7.488l7.776 7.776q.576.576.576 1.408t-.576 1.376-1.376.576-1.408-.576z"/>
	</symbol>
	<symbol id="arrow-next" viewBox="0 0 32 32">
		<path d="M0 16.096q0-.832.576-1.376t1.376-.544h20.544l-7.744-7.808q-.608-.576-.608-1.408t.608-1.344q.544-.608 1.344-.608t1.408.608l12.48 12.48-12.48 12.512q-.64.576-1.408.576t-1.344-.576-.608-1.408.608-1.376l7.744-7.744H1.952q-.8 0-1.376-.576T0 16.096"/>
	</symbol>

	<symbol id="mail" viewBox="0 0 32 34">
		<path fill="hsl(45, 100%, 96%)" d="M32 12.672v14.176q0 1.184-.832 2.016t-2.016.864H2.848q-1.152 0-2.016-.864T0 26.848V12.672q.8.864 1.792 1.568 6.464 4.384 8.896 6.144 1.024.768 1.632 1.184t1.696.864 1.952.416h.064q.896 0 1.952-.416t1.696-.864 1.632-1.184q3.04-2.176 8.896-6.144 1.024-.704 1.792-1.568m0-5.248q0 1.408-.864 2.688T28.96 12.32q-6.72 4.672-8.384 5.792-.16.128-.736.544t-.96.704-.928.576-1.024.48-.896.16h-.064q-.384 0-.864-.16t-1.024-.48-.96-.576-.96-.704-.736-.544q-1.632-1.12-4.704-3.232t-3.648-2.56q-1.12-.736-2.08-2.048T0 7.808q0-1.376.736-2.304t2.112-.928h26.304q1.152 0 2.016.832T32 7.424"/>
	</symbol>
	<symbol id="phone" viewBox="0 0 24.5 32">
		<path fill="hsl(45, 100%, 96%)" d="M25.152 22.144q0 .48-.192 1.248t-.384 1.216q-.352.896-2.176 1.92-1.664.896-3.296.896-.48 0-.96-.064t-1.024-.224-.832-.256-.992-.352-.896-.32q-1.728-.64-3.104-1.504-2.272-1.408-4.736-3.84t-3.84-4.736q-.864-1.376-1.472-3.104-.064-.16-.32-.896t-.384-.992-.256-.832T.064 9.28 0 8.352q0-1.664.928-3.328Q1.92 3.2 2.816 2.848q.448-.192 1.216-.384t1.248-.192q.256 0 .384.064.32.096.96 1.344.192.352.512.992t.64 1.12.544.96q.064.064.32.448t.384.64.128.512q0 .352-.512.864t-1.12.992-1.088.96-.512.8q0 .16.096.416t.128.352.256.448.224.32q1.344 2.464 3.104 4.224t4.192 3.104q.032 0 .32.192t.448.256.352.16.416.064q.32 0 .8-.512t.96-1.088.992-1.12.896-.512q.224 0 .48.128t.64.384.448.32q.448.256.96.544t1.152.64.96.544q1.248.608 1.344.928.064.128.064.384"/>
	</symbol>
	<symbol id="github" viewBox="0 0 27.5 32">
		<path fill="hsl(45, 100%, 96%)" d="M13.728 2.272q3.712 0 6.88 1.856T25.6 9.12 27.424 16q0 4.48-2.624 8.064t-6.752 4.96q-.48.096-.704-.128t-.224-.544v-3.776q0-1.728-.928-2.528 1.024-.096 1.824-.32t1.696-.704 1.44-1.184.96-1.856.352-2.688q0-2.144-1.408-3.68.672-1.632-.128-3.648-.512-.16-1.472.192t-1.632.8l-.672.416q-1.664-.48-3.424-.48t-3.456.48q-.256-.192-.736-.48t-1.504-.704-1.504-.224q-.8 2.016-.16 3.648-1.408 1.536-1.408 3.68 0 1.504.384 2.656t.928 1.888 1.44 1.184 1.664.704 1.824.32q-.672.64-.864 1.856-.384.16-.8.256t-1.024.096-1.152-.384-.992-1.12q-.352-.576-.864-.928t-.896-.448l-.352-.032q-.384 0-.512.064t-.096.224.16.256.224.192l.128.096q.384.192.768.672t.576.928l.192.416q.224.672.768 1.088t1.184.544 1.248.096.992-.032l.416-.096v1.6q0 .896.032.96 0 .32-.256.544t-.704.128q-4.128-1.376-6.752-4.96T0 16q0-3.744 1.856-6.88t4.96-4.992 6.912-1.856M5.184 21.984q.064-.128-.096-.224-.192-.032-.256.032-.032.128.128.224t.224-.032m.576.608q.128-.096-.032-.288-.192-.16-.288-.064-.128.096.032.288t.288.064m.512.8q.192-.128 0-.352-.128-.224-.288-.096-.16.096 0 .32t.288.128m.768.736q.128-.128-.064-.32-.224-.224-.352-.064-.16.16.064.352.192.192.352.032m1.024.448q.032-.192-.256-.288-.256-.064-.32.128t.224.288q.256.096.352-.128m1.12.096q0-.224-.32-.192-.288 0-.288.192 0 .224.32.192.288 0 .288-.192m1.024-.16q-.032-.224-.32-.16-.288.032-.256.256t.32.128.256-.224"/>
	</symbol>
	<symbol id="whatsapp" viewBox="0 0 512 512">
		<path  d="M373.295,307.064c-6.37,-3.188 -37.687,-18.596 -43.526,-20.724c-5.838,-2.126 -10.084,-3.187 -14.331,3.188c-4.246,6.376 -16.454,20.725 -20.17,24.976c-3.715,4.251 -7.431,4.785 -13.8,1.594c-6.37,-3.187 -26.895,-9.913 -51.225,-31.616c-18.935,-16.89 -31.72,-37.749 -35.435,-44.126c-3.716,-6.377 -0.397,-9.824 2.792,-13c2.867,-2.854 6.371,-7.44 9.555,-11.16c3.186,-3.718 4.247,-6.377 6.37,-10.626c2.123,-4.252 1.062,-7.971 -0.532,-11.159c-1.591,-3.188 -14.33,-34.542 -19.638,-47.298c-5.171,-12.419 -10.422,-10.737 -14.332,-10.934c-3.711,-0.184 -7.963,-0.223 -12.208,-0.223c-4.246,0 -11.148,1.594 -16.987,7.969c-5.838,6.377 -22.293,21.789 -22.293,53.14c0,31.355 22.824,61.642 26.009,65.894c3.185,4.252 44.916,68.59 108.816,96.181c15.196,6.564 27.062,10.483 36.312,13.418c15.259,4.849 29.145,4.165 40.121,2.524c12.238,-1.827 37.686,-15.408 42.995,-30.286c5.307,-14.882 5.307,-27.635 3.715,-30.292c-1.592,-2.657 -5.838,-4.251 -12.208,-7.44m-116.224,158.693l-0.086,0c-38.022,-0.015 -75.313,-10.23 -107.845,-29.535l-7.738,-4.592l-80.194,21.037l21.405,-78.19l-5.037,-8.017c-21.211,-33.735 -32.414,-72.726 -32.397,-112.763c0.047,-116.825 95.1,-211.87 211.976,-211.87c56.595,0.019 109.795,22.088 149.801,62.139c40.005,40.05 62.023,93.286 62.001,149.902c-0.048,116.834 -95.1,211.889 -211.886,211.889m180.332,-392.224c-48.131,-48.186 -112.138,-74.735 -180.335,-74.763c-140.514,0 -254.875,114.354 -254.932,254.911c-0.018,44.932 11.72,88.786 34.03,127.448l-36.166,132.102l135.141,-35.45c37.236,20.31 79.159,31.015 121.826,31.029l0.105,0c140.499,0 254.87,-114.366 254.928,-254.925c0.026,-68.117 -26.467,-132.166 -74.597,-180.352"/>
	</symbol>
</svg>