<svg xmlns="http://www.w3.org/2000/svg" width="810" height="850" fill="none"><g stroke-width="2" clip-path="url(#a)"><path stroke="url(#b)" d="M166.16 262.11c-15.351 24.557-6.29 50.361 5.507 76.577 1.489 3.308 3.021 6.624 4.558 9.948 4.584 9.915 9.203 19.906 12.795 30.018 4.79 13.483 7.708 27.067 6.248 40.752-1.658 15.537-8.166 30.29-16.634 44.625-5.95 10.072-12.828 19.877-19.64 29.588-2.896 4.129-5.781 8.241-8.577 12.349-18.646 27.396-33.373 54.625-19.185 83.981 36.796 76.134 121.998 130.636 210.654 131.905 53.801.77 111.756-7.356 161.946-27.212 50.188-19.855 92.692-51.475 115.425-97.737 22.049-44.87 12.212-90.15-8.59-135.118-10.403-22.486-23.571-44.946-36.916-67.282l-4.006-6.695c-12.029-20.096-23.995-40.084-34.053-59.953-8.449-16.689-16.161-34.639-23.946-52.76-1.42-3.305-2.842-6.616-4.272-9.925-9.26-21.439-18.825-42.827-30.003-62.26-22.356-38.87-51.256-70.079-97.306-78.302-44.779-7.996-86.819 8.044-123.355 35.206-36.532 27.158-67.646 65.494-90.65 102.295Z"/><path stroke="url(#c)" d="M149.967 271.543c-14.695 25.195-3.997 50.609 9.544 76.297 1.71 3.242 3.465 6.49 5.225 9.746 5.249 9.712 10.538 19.498 14.769 29.448 5.64 13.267 9.343 26.708 8.515 40.434-.94 15.583-6.946 30.591-15.009 45.269-5.664 10.313-12.305 20.397-18.881 30.385-2.797 4.247-5.582 8.477-8.276 12.699-17.957 28.149-31.877 55.989-15.687 84.735 41.966 74.51 133.023 125.35 224.976 122.883 55.814-1.497 115.488-12.056 166.524-34.003 51.032-21.946 93.518-55.32 114.773-102.498 20.621-45.768 8.148-90.602-15.672-134.648-11.912-22.027-26.69-43.909-41.645-65.66q-2.245-3.263-4.489-6.521c-13.479-19.568-26.886-39.033-38.31-58.458-9.595-16.315-18.489-33.922-27.469-51.697-1.637-3.242-3.278-6.49-4.926-9.736-10.676-21.028-21.664-41.991-34.226-60.934-25.13-37.895-56.65-67.839-104.781-74.11-46.8-6.098-89.569 11.686-126.089 40.358-36.515 28.668-66.856 68.276-88.866 106.011Z"/><path stroke="url(#d)" d="M132.69 280.923c-14.285 25.769-1.989 50.764 13.273 75.894 1.927 3.173 3.902 6.35 5.883 9.534 5.906 9.498 11.858 19.068 16.709 28.843 6.47 13.034 10.918 26.313 10.645 40.049-.31 15.598-5.937 30.824-13.732 45.806-5.476 10.525-11.982 20.862-18.426 31.099-2.74 4.353-5.469 8.689-8.102 13.013-8.797 14.445-16.514 28.743-19.769 42.925-3.267 14.232-2.043 28.362 7.03 42.389C173.29 683.281 270.659 730.49 366.64 724.422c58.273-3.683 120.188-16.57 172.583-40.495 52.386-23.922 95.355-58.928 115.54-106.903 19.587-46.557 4.603-90.88-22.2-133.956-13.404-21.541-29.798-42.827-46.372-63.974q-2.486-3.17-4.973-6.338c-14.936-19.024-29.792-37.947-42.573-56.909-10.735-15.926-20.794-33.169-30.948-50.578a5433 5433 0 0 0-5.57-9.534c-12.069-20.592-24.461-41.107-38.412-59.543-27.911-36.884-62.145-65.549-112.696-69.925-49.155-4.255-93.077 15.176-130.012 45.253-36.93 30.073-66.937 70.835-88.317 109.403Z"/><path stroke="url(#e)" d="M122.362 290.984c-13.442 26.316.124 50.817 16.703 75.326 2.094 3.096 4.237 6.192 6.385 9.297 6.408 9.259 12.864 18.587 18.21 28.163 7.13 12.771 12.212 25.862 12.515 39.594.343 15.595-4.735 31.027-12.03 46.304-5.124 10.732-11.303 21.315-17.424 31.797-2.603 4.458-5.195 8.897-7.69 13.321-8.336 14.778-15.58 29.369-18.292 43.67-2.722 14.353-.88 28.428 8.94 42.09 50.96 70.902 151.965 114.249 249.301 104.423 59.1-5.966 121.516-21.271 173.784-47.231 52.258-25.955 94.475-62.616 112.976-111.347 17.956-47.295.842-91.002-28.233-132.992-14.541-21-32.111-41.625-49.858-62.106q-2.662-3.071-5.325-6.139c-15.992-18.423-31.899-36.748-45.697-55.194-11.589-15.492-22.546-32.327-33.607-49.324-2.018-3.099-4.039-6.205-6.068-9.308-13.142-20.103-26.61-40.117-41.576-57.991-29.943-35.762-65.963-63.056-117.541-65.445-50.155-2.323-93.993 18.81-130.282 50.311-36.283 31.496-65.077 73.403-85.191 112.781Z"/></g><defs><linearGradient id="b" x1="45.379" x2="466.827" y1="-39.432" y2="797.979" gradientUnits="userSpaceOnUse"><stop stop-color="#181306" stop-opacity="0"/><stop offset="1" stop-color="#181306"/></linearGradient><linearGradient id="c" x1="9.597" x2="459.159" y1="-24.596" y2="810.03" gradientUnits="userSpaceOnUse"><stop stop-color="#181306" stop-opacity="0"/><stop offset="1" stop-color="#181306"/></linearGradient><linearGradient id="d" x1="-26.89" x2="445.101" y1="-9.451" y2="826.081" gradientUnits="userSpaceOnUse"><stop stop-color="#181306" stop-opacity="0"/><stop offset="1" stop-color="#181306"/></linearGradient><linearGradient id="e" x1="-52.198" x2="449.19" y1="7.102" y2="831.904" gradientUnits="userSpaceOnUse"><stop stop-color="#181306" stop-opacity="0"/><stop offset="1" stop-color="#181306"/></linearGradient><clipPath id="a"><path fill="#fff" d="m189.803 0 619.588 174.094L619.588 849.59 0 675.495z"/></clipPath></defs></svg>