<svg xmlns="http://www.w3.org/2000/svg" width="696" height="697" fill="none"><path stroke="url(#a)" d="M159.605 486.935c6.383-114.267 279.177-134.817 215.755-257.572-63.423-122.756 131.885-89.82 155.69-35.143 23.804 54.677-25.31 50.249-12.472 105.82 14.361 62.166.823 174.27-74.641 205.219-75.465 30.95-290.715 95.943-284.332-18.324Z" clip-rule="evenodd"/><path stroke="url(#b)" d="M153.034 476.343c12.161-113.78 285.632-119.974 228.511-245.897s136.259-82.773 157.262-26.918-27.82 48.853-17.813 105.024c11.194 62.838-8.004 174.082-84.935 201.026s-295.186 80.544-283.025-33.235Z" clip-rule="evenodd"/><path stroke="url(#c)" d="M149.292 469.715c15.671-113.333 289.198-110.757 235.997-238.449s138.749-78.364 158.016-21.864-29.316 47.938-21.051 104.401c9.247 63.166-13.379 173.739-91.105 198.204-77.725 24.464-297.529 71.041-281.857-42.292Z" clip-rule="evenodd"/><path stroke="url(#d)" d="M156.161 481.535c9.356-114.054 282.588-127.231 222.384-251.656s134.177-86.227 156.55-30.927c22.372 55.301-26.609 49.549-15.222 105.446 12.738 62.532-3.714 174.232-79.957 203.132s-293.11 88.059-283.755-25.995Z" clip-rule="evenodd"/><path stroke="url(#e)" d="M146.075 463.601c18.843-112.831 292.186-102.3 242.587-231.488s140.891-74.296 158.565-17.258c17.675 57.037-30.648 47.065-23.969 103.746 7.471 63.409-18.246 173.279-96.626 195.473-78.38 22.193-299.4 62.358-280.557-50.473Z" clip-rule="evenodd"/><defs><linearGradient id="a" x1="180.009" x2="431.097" y1="7.678" y2="594.717" gradientUnits="userSpaceOnUse"><stop stop-color="#181306" stop-opacity="0"/><stop offset="1" stop-color="#181306"/></linearGradient><linearGradient id="b" x1="197.681" x2="417.883" y1="-1.205" y2="598.544" gradientUnits="userSpaceOnUse"><stop stop-color="#181306" stop-opacity="0"/><stop offset="1" stop-color="#181306"/></linearGradient><linearGradient id="c" x1="208.676" x2="409.686" y1="-6.165" y2="600.527" gradientUnits="userSpaceOnUse"><stop stop-color="#181306" stop-opacity="0"/><stop offset="1" stop-color="#181306"/></linearGradient><linearGradient id="d" x1="189.034" x2="424.343" y1="2.997" y2="596.772" gradientUnits="userSpaceOnUse"><stop stop-color="#181306" stop-opacity="0"/><stop offset="1" stop-color="#181306"/></linearGradient><linearGradient id="e" x1="218.779" x2="402.171" y1="-10.357" y2="602.091" gradientUnits="userSpaceOnUse"><stop stop-color="#181306" stop-opacity="0"/><stop offset="1" stop-color="#181306"/></linearGradient></defs></svg>