<svg width="810" height="850" viewBox="0 0 810 850" fill="none" xmlns="http://www.w3.org/2000/svg">
<g clip-path="url(#clip0_80_414)">
<path d="M166.16 262.11C150.809 286.667 159.87 312.471 171.667 338.687C173.156 341.995 174.688 345.311 176.225 348.635C180.809 358.55 185.428 368.541 189.02 378.653C193.81 392.136 196.728 405.72 195.268 419.405C193.61 434.942 187.102 449.695 178.634 464.03C172.684 474.102 165.806 483.907 158.994 493.618C156.098 497.747 153.213 501.859 150.417 505.967C131.771 533.363 117.044 560.592 131.232 589.948C168.028 666.082 253.23 720.584 341.886 721.853C395.687 722.623 453.642 714.497 503.832 694.641C554.02 674.786 596.524 643.166 619.257 596.904C641.306 552.034 631.469 506.754 610.667 461.786C600.264 439.3 587.096 416.84 573.751 394.504C572.416 392.271 571.08 390.039 569.745 387.809C557.716 367.713 545.75 347.725 535.692 327.856C527.243 311.167 519.531 293.217 511.746 275.096C510.326 271.791 508.904 268.48 507.474 265.171C498.214 243.732 488.649 222.344 477.471 202.911C455.115 164.041 426.215 132.832 380.165 124.609C335.386 116.613 293.346 132.653 256.81 159.815C220.278 186.973 189.164 225.309 166.16 262.11Z" stroke="url(#paint0_linear_80_414)" stroke-width="2"/>
<path d="M149.967 271.543C135.272 296.738 145.97 322.152 159.511 347.84C161.221 351.082 162.976 354.33 164.736 357.586C169.985 367.298 175.274 377.084 179.505 387.034C185.145 400.301 188.848 413.742 188.02 427.468C187.08 443.051 181.074 458.059 173.011 472.737C167.347 483.05 160.706 493.134 154.13 503.122C151.333 507.369 148.548 511.599 145.854 515.821C127.897 543.97 113.977 571.81 130.167 600.556C172.133 675.066 263.19 725.906 355.143 723.439C410.957 721.942 470.631 711.383 521.667 689.436C572.699 667.49 615.185 634.116 636.44 586.938C657.061 541.17 644.588 496.336 620.768 452.29C608.856 430.263 594.078 408.381 579.123 386.63C577.627 384.455 576.13 382.281 574.634 380.109C561.155 360.541 547.748 341.076 536.324 321.651C526.729 305.336 517.835 287.729 508.855 269.954C507.218 266.712 505.577 263.464 503.929 260.218C493.253 239.19 482.265 218.227 469.703 199.284C444.573 161.389 413.053 131.445 364.922 125.174C318.122 119.076 275.353 136.86 238.833 165.532C202.318 194.2 171.977 233.808 149.967 271.543Z" stroke="url(#paint1_linear_80_414)" stroke-width="2"/>
<path d="M132.69 280.923C118.405 306.692 130.701 331.687 145.963 356.817C147.89 359.99 149.865 363.167 151.846 366.351C157.752 375.849 163.704 385.419 168.555 395.194C175.025 408.228 179.473 421.507 179.2 435.243C178.89 450.841 173.263 466.067 165.468 481.049C159.992 491.574 153.486 501.911 147.042 512.148C144.302 516.501 141.573 520.837 138.94 525.161C130.143 539.606 122.426 553.904 119.171 568.086C115.904 582.318 117.128 596.448 126.201 610.475C173.29 683.281 270.659 730.49 366.64 724.422C424.913 720.739 486.828 707.852 539.223 683.927C591.609 660.005 634.578 624.999 654.763 577.024C674.35 530.467 659.366 486.144 632.563 443.068C619.159 421.527 602.765 400.241 586.191 379.094C584.534 376.98 582.876 374.868 581.218 372.756C566.282 353.732 551.426 334.809 538.645 315.847C527.91 299.921 517.851 282.678 507.697 265.269C505.845 262.094 503.99 258.914 502.127 255.735C490.058 235.143 477.666 214.628 463.715 196.192C435.804 159.308 401.57 130.643 351.019 126.267C301.864 122.012 257.942 141.443 221.007 171.52C184.077 201.593 154.07 242.355 132.69 280.923Z" stroke="url(#paint2_linear_80_414)" stroke-width="2"/>
<path d="M122.362 290.984C108.92 317.3 122.486 341.801 139.065 366.31C141.159 369.406 143.302 372.502 145.45 375.607C151.858 384.866 158.314 394.194 163.66 403.77C170.79 416.541 175.872 429.632 176.175 443.364C176.518 458.959 171.44 474.391 164.145 489.668C159.021 500.4 152.842 510.983 146.721 521.465C144.118 525.923 141.526 530.362 139.031 534.786C130.695 549.564 123.451 564.155 120.739 578.456C118.017 592.809 119.859 606.884 129.679 620.546C180.639 691.448 281.644 734.795 378.98 724.969C438.08 719.003 500.496 703.698 552.764 677.738C605.022 651.783 647.239 615.122 665.74 566.391C683.696 519.096 666.582 475.389 637.507 433.399C622.966 412.399 605.396 391.774 587.649 371.293C585.875 369.246 584.099 367.199 582.324 365.154C566.332 346.731 550.425 328.406 536.627 309.96C525.038 294.468 514.081 277.633 503.02 260.636C501.002 257.537 498.981 254.431 496.952 251.328C483.81 231.225 470.342 211.211 455.376 193.337C425.433 157.575 389.413 130.281 337.835 127.892C287.68 125.569 243.842 146.702 207.553 178.203C171.27 209.699 142.476 251.606 122.362 290.984Z" stroke="url(#paint3_linear_80_414)" stroke-width="2"/>
</g>
<defs>
<linearGradient id="paint0_linear_80_414" x1="45.3789" y1="-39.4319" x2="466.827" y2="797.979" gradientUnits="userSpaceOnUse">
<stop stop-color="#181306" stop-opacity="0"/>
<stop offset="1" stop-color="#181306"/>
</linearGradient>
<linearGradient id="paint1_linear_80_414" x1="9.59704" y1="-24.5963" x2="459.159" y2="810.03" gradientUnits="userSpaceOnUse">
<stop stop-color="#181306" stop-opacity="0"/>
<stop offset="1" stop-color="#181306"/>
</linearGradient>
<linearGradient id="paint2_linear_80_414" x1="-26.8895" y1="-9.45081" x2="445.101" y2="826.081" gradientUnits="userSpaceOnUse">
<stop stop-color="#181306" stop-opacity="0"/>
<stop offset="1" stop-color="#181306"/>
</linearGradient>
<linearGradient id="paint3_linear_80_414" x1="-52.1984" y1="7.10239" x2="449.19" y2="831.904" gradientUnits="userSpaceOnUse">
<stop stop-color="#181306" stop-opacity="0"/>
<stop offset="1" stop-color="#181306"/>
</linearGradient>
<clipPath id="clip0_80_414">
<rect width="643.582" height="701.654" fill="white" transform="translate(189.803) rotate(15.6945)"/>
</clipPath>
</defs>
</svg>
