<svg width="331" height="323" viewBox="0 0 331 323" fill="none" xmlns="http://www.w3.org/2000/svg">
<path fill-rule="evenodd" clip-rule="evenodd" d="M13.7469 269.791C18.7457 180.302 232.386 164.208 182.716 68.071C133.047 -28.0657 286.004 -2.27207 304.646 40.5485C323.289 83.3692 284.825 79.9019 294.879 123.422C306.126 172.108 295.523 259.903 236.423 284.141C177.323 308.379 8.74805 359.279 13.7469 269.791Z" stroke="url(#paint0_linear_300_388)"/>
<path fill-rule="evenodd" clip-rule="evenodd" d="M8.60077 261.495C18.1247 172.388 232.296 167.537 187.561 68.9192C142.826 -29.6985 294.273 4.09523 310.722 47.8381C327.171 91.581 288.934 86.0979 296.771 130.089C305.538 179.3 290.503 266.422 230.254 287.523C170.005 308.625 -0.923173 350.602 8.60077 261.495Z" stroke="url(#paint1_linear_300_388)"/>
<path fill-rule="evenodd" clip-rule="evenodd" d="M5.66974 256.304C17.9429 167.547 232.158 169.564 190.493 69.5613C148.828 -30.4417 299.155 8.19033 314.244 52.4388C329.333 96.6873 291.285 89.9812 297.758 134.201C305 183.67 287.28 270.266 226.409 289.425C165.537 308.585 -6.60342 345.062 5.66974 256.304Z" stroke="url(#paint2_linear_300_388)"/>
<path fill-rule="evenodd" clip-rule="evenodd" d="M11.05 265.561C18.3765 176.239 232.361 165.919 185.211 68.4746C138.062 -28.9693 290.293 0.945185 307.814 44.2541C325.336 87.563 286.976 83.0584 295.893 126.835C305.869 175.807 292.985 263.285 233.274 285.919C173.564 308.553 3.72342 354.883 11.05 265.561Z" stroke="url(#paint3_linear_300_388)"/>
<path fill-rule="evenodd" clip-rule="evenodd" d="M3.15064 251.517C17.9077 163.152 231.978 171.399 193.135 70.2254C154.291 -30.9486 303.474 12.0401 317.316 56.7094C331.158 101.379 293.313 93.5687 298.544 137.959C304.395 187.618 284.254 273.663 222.871 291.045C161.487 308.426 -11.6064 339.881 3.15064 251.517Z" stroke="url(#paint4_linear_300_388)"/>
<defs>
<linearGradient id="paint0_linear_300_388" x1="29.7267" y1="-105.543" x2="226.367" y2="354.201" gradientUnits="userSpaceOnUse">
<stop offset="1" stop-color="#181306"/>
</linearGradient>
<linearGradient id="paint1_linear_300_388" x1="43.5664" y1="-112.5" x2="216.019" y2="357.198" gradientUnits="userSpaceOnUse">
<stop offset="1" stop-color="#181306"/>
</linearGradient>
<linearGradient id="paint2_linear_300_388" x1="52.1767" y1="-116.384" x2="209.6" y2="358.751" gradientUnits="userSpaceOnUse">
<stop offset="1" stop-color="#181306"/>
</linearGradient>
<linearGradient id="paint3_linear_300_388" x1="36.7944" y1="-109.209" x2="221.078" y2="355.809" gradientUnits="userSpaceOnUse">
<stop offset="1" stop-color="#181306"/>
</linearGradient>
<linearGradient id="paint4_linear_300_388" x1="60.0893" y1="-119.667" x2="203.714" y2="359.976" gradientUnits="userSpaceOnUse">
<stop offset="1" stop-color="#181306"/>
</linearGradient>
</defs>
</svg>
