<svg viewBox="0 0 361 383" fill="none" xmlns="http://www.w3.org/2000/svg"><path clip-rule="evenodd" d="M25.708 297.16c4.998-89.489 218.639-105.583 168.969-201.72-49.669-96.136 103.287-70.342 121.93-27.522 18.642 42.821-19.822 39.354-9.767 82.874 11.247 48.686.644 136.481-58.456 160.719S20.709 386.649 25.708 297.16Z" stroke="url(#a)"/><path clip-rule="evenodd" d="M20.562 288.864c9.523-89.107 223.694-93.957 178.959-192.575s106.712-64.824 123.162-21.081c16.449 43.743-21.788 38.26-13.952 82.25 8.767 49.212-6.267 136.333-66.516 157.435-60.25 21.101-231.177 63.079-221.653-26.029Z" stroke="url(#b)"/><path clip-rule="evenodd" d="M17.63 283.674c12.274-88.758 226.488-86.74 184.823-186.743S311.116 35.56 326.205 79.808s-22.959 37.543-16.486 81.763c7.242 49.468-10.478 136.065-71.35 155.224-60.871 19.16-233.012 55.637-220.739-33.121Z" stroke="url(#c)"/><path clip-rule="evenodd" d="M23.01 292.931c7.327-89.323 221.311-99.643 174.162-197.087s105.082-67.53 122.603-24.22c17.521 43.309-20.839 38.804-11.921 82.581 9.976 48.972-2.909 136.45-62.619 159.084s-229.55 68.964-222.224-20.358Z" stroke="url(#d)"/><path clip-rule="evenodd" d="M15.111 278.886c14.757-88.364 228.828-80.117 189.984-181.29C166.252-3.58 315.435 39.41 329.277 84.078s-24.003 36.859-18.772 81.25c5.851 49.659-14.29 135.704-75.674 153.085C173.448 335.794.354 367.25 15.111 278.885Z" stroke="url(#e)"/><defs><linearGradient id="a" x1="41.687" y1="-78.173" x2="238.328" y2="381.57" gradientUnits="userSpaceOnUse"><stop stop-color="#181306" stop-opacity="0"/><stop offset="1" stop-color="#181306"/></linearGradient><linearGradient id="b" x1="55.527" y1="-85.13" x2="227.98" y2="384.567" gradientUnits="userSpaceOnUse"><stop stop-color="#181306" stop-opacity="0"/><stop offset="1" stop-color="#181306"/></linearGradient><linearGradient id="c" x1="64.137" y1="-89.014" x2="221.56" y2="386.121" gradientUnits="userSpaceOnUse"><stop stop-color="#181306" stop-opacity="0"/><stop offset="1" stop-color="#181306"/></linearGradient><linearGradient id="d" x1="48.755" y1="-81.84" x2="233.039" y2="383.179" gradientUnits="userSpaceOnUse"><stop stop-color="#181306" stop-opacity="0"/><stop offset="1" stop-color="#181306"/></linearGradient><linearGradient id="e" x1="72.05" y1="-92.297" x2="215.675" y2="387.346" gradientUnits="userSpaceOnUse"><stop stop-color="#181306" stop-opacity="0"/><stop offset="1" stop-color="#181306"/></linearGradient></defs></svg>