<svg width="114" height="215" viewBox="0 0 114 215" fill="none" xmlns="http://www.w3.org/2000/svg">
<path d="M74.5451 9.78555C77.6074 8.65407 84.291 6.43106 86.5278 6.5908C87.26 6.79048 90.7217 9.18655 91.1211 9.18655C91.3208 9.38623 93.3179 12.9803 103.903 13.5793C103.903 13.779 106.299 15.9754 105.5 23.1636C105.5 23.7626 103.903 26.9574 102.505 27.7561C102.117 27.9776 96.5133 29.9525 97.7115 34.1456C97.7115 34.3452 98.3107 36.1423 104.102 44.3288C107.298 49.121 126.27 75.0783 96.5133 106.427C96.1139 110.42 96.5133 119.206 96.5133 124.198C96.5133 129.189 97.5118 147.234 100.308 156.219C100.627 156.379 103.769 154.289 105.301 153.224C107.452 153.415 110.939 154.821 111.292 157.018C111.516 158.416 111.292 161.211 110.693 162.209C110.094 163.208 104.701 163.807 95.1153 163.807C92.5191 159.214 89.3237 146.561 87.3266 142.568C87.5128 142.94 83.3599 134.809 82.149 128.044C82.4092 130.862 82.2294 137.961 77.3411 152.351C78.0733 152.551 79.6178 153.11 79.9373 153.749C80.137 153.749 87.3266 154.148 88.1255 155.147C88.3252 155.347 88.3252 157.144 86.5278 162.335C84.9967 162.934 74.7449 164.731 44.5886 161.936C44.3889 162.335 36.9996 163.434 30.4091 162.835C28.4202 162.654 15.4999 160.609 15.4999 166C15.4999 166 1.65083 155.347 9.83896 142.168C11.2369 129.589 8.44099 119.805 19.8245 94.6462C27.8129 77.6741 40.2096 60.8896 59.7666 61.5006C59.7666 61.5006 60.5654 59.9033 61.564 58.1062C61.564 54.5121 61.5238 46.9103 58.768 31.1505C58.3686 26.9574 57.1703 25.959 61.1646 15.7757C61.4308 12.5144 63.5611 5.19311 63.5611 5.19311C64.5596 2.59738 65.2919 1.06656 65.7579 1C66.412 1.91563 67.7861 4.00091 68.1368 5.13395C68.1722 4.79609 68.9342 3.09454 69.3527 2.19803C70.2846 4.06162 72.6279 8.18815 74.5451 9.78555Z" fill="#181306" stroke="#181306" stroke-linejoin="round"/>
<path d="M13.2341 183.127C14.6321 164.158 28.4203 162.58 30.4092 162.761L9.83901 142.594C1.65088 155.772 0.0532048 159.766 1.45118 175.739C2.44973 195.906 13.4338 204.093 20.0243 208.086C32.606 216.672 51.9779 214.875 58.9678 212.279C69.5524 207.487 74.5452 198.702 74.7449 197.304C74.9446 195.906 74.3455 190.914 70.3513 187.72C64.3599 185.124 59.657 190.014 62.3629 192.512C64.9591 194.908 65.9576 195.906 65.7579 196.106C61.1646 209.284 46.7854 208.885 36.7999 206.289C15.4309 199.301 13.2341 188.518 13.2341 183.127Z" fill="#181306" stroke="#181306" stroke-linejoin="round"/>
</svg>
