<svg width="175" height="223" viewBox="0 0 175 223" fill="none" xmlns="http://www.w3.org/2000/svg">
<path d="M135.545 9.78555C138.607 8.65407 145.291 6.43106 147.528 6.5908C148.26 6.79048 151.722 9.18655 152.121 9.18655C152.321 9.38623 154.318 12.9803 164.903 13.5793C164.903 13.779 167.299 15.9754 166.5 23.1636C166.5 23.7626 164.903 26.9574 163.505 27.7561C163.117 27.9776 157.513 29.9525 158.712 34.1456C158.712 34.3452 159.311 36.1423 165.102 44.3288C168.298 49.121 187.27 75.0783 157.513 106.427C157.114 110.42 157.513 119.206 157.513 124.198C157.513 129.189 158.512 147.234 161.308 156.219C161.627 156.379 164.769 154.289 166.301 153.224C168.452 153.415 171.939 154.821 172.292 157.018C172.516 158.416 172.292 161.211 171.693 162.209C171.094 163.208 165.701 163.807 156.115 163.807C153.519 159.214 150.324 146.561 148.327 142.568C148.513 142.94 144.36 134.809 143.149 128.044C143.409 130.862 143.229 137.961 138.341 152.351C139.073 152.551 140.618 153.11 140.937 153.749C141.137 153.749 148.327 154.148 149.126 155.147C149.325 155.347 149.325 157.144 147.528 162.335C145.997 162.934 135.745 164.731 105.589 161.936C105.389 162.335 97.9996 163.434 91.4092 162.835C89.4203 162.654 76.5 160.609 76.5 166C76.5 166 62.6509 155.347 70.839 142.168C72.237 129.589 69.4411 119.805 80.8246 94.6462C88.813 77.6741 101.21 60.8896 120.767 61.5006C120.767 61.5006 121.565 59.9033 122.564 58.1062C122.564 54.5121 122.524 46.9103 119.768 31.1505C119.369 26.9574 118.17 25.959 122.165 15.7757C122.431 12.5144 124.561 5.19311 124.561 5.19311C125.56 2.59738 126.292 1.06656 126.758 1C127.412 1.91563 128.786 4.00091 129.137 5.13395C129.172 4.79609 129.934 3.09454 130.353 2.19803C131.285 4.06162 133.628 8.18815 135.545 9.78555Z" fill="#181306" stroke="#181306" stroke-linejoin="round"/>
<path d="M49.5 193.5C59 190 62.6172 183.5 62.6172 179.147C62.6172 174.794 60 154.5 69.9321 143.206L90.5023 163.373C88.5134 163.192 82.691 165 77 172C72.2453 177.848 80 183 63.5 196C30.5 212 22.3177 183.69 22.118 182.292C21.9182 180.894 22.5174 175.903 26.5116 172.708C32.5029 170.112 37.2059 175.003 34.5 177.5C31.9038 179.896 30.9052 180.894 31.1049 181.094C31.1049 190.5 40 197 49.5 193.5Z" fill="#181306" stroke="#181306" stroke-linejoin="round"/>
</svg>
