<svg xmlns="http://www.w3.org/2000/svg">

<!-- CURVE TEXT -->
<symbol id="curve-text" width="345" height="352" viewBox="0 0 345 352" fill="none">
<path fill="#181306" d="m34.394 114.205-.575-.282q.393-.948.447-1.492t-.394-.941q-.433-.426-1.467-.933l-14.252-6.986q-1.063-.52-1.636-.588-.588-.11-1 .294-.427.361-.892 1.238l-.575-.282q.409-.762 1.044-1.983a123 123 0 0 0 3.311-6.894l.575.282q-.423.933-.46 1.52-.054.545.393.941.418.384 1.48.904l14.253 6.986q1.034.507 1.622.617.601.081 1-.294.398-.375.906-1.266l.575.281q-.41.69-.988 1.868-.593 1.136-1.24 2.457a122 122 0 0 0-1.198 2.513 32 32 0 0 0-.93 2.04m-5.977 12.181-.574-.282q.392-.948.446-1.492t-.393-.941q-.434-.426-1.467-.933l-14.252-6.986q-1.064-.52-1.637-.588-.587-.11-1 .294-.426.361-.892 1.238l-.574-.282q.395-.733 1.001-1.897a122 122 0 0 0 2.453-4.998q.549-1.193.901-1.982l.575.282q-.423.933-.461 1.52-.053.544.394.941.418.384 1.48.904l14.253 6.986q1.035.507 1.622.617.601.081 1-.294.398-.375.906-1.266l.575.281q-.438.748-1.016 1.926-.607 1.164-1.199 2.37-.69 1.408-1.254 2.629-.577 1.177-.887 1.953m-7.56-9.729-.574-.281 5.567-11.348.575.281zm10.319-30.235q1.605-2.314 3.884-2.681t5.383 1.783l-5.999 8.652-.536-.294 3.738-5.39a15.3 15.3 0 0 0-2.477-1.483q-1.231-.582-2.163-.643-.93-.06-1.387.597-.637.92.063 2.38.72 1.432 3.312 3.423l.212.03.621.508.71.492q1.815 1.258 3.293 1.542 1.496.258 2.569-.167 1.047-.442 1.612-1.258.383-.552.626-1.24a4.9 4.9 0 0 0 .208-1.647q-.054-.933-.531-2.042l.486-.364q.78 1.008 1.253 2.348.474 1.34.349 2.81-.125 1.472-1.146 2.944-1.24 1.789-2.95 2.628-1.712.839-3.81.552-2.082-.312-4.475-1.971-2.446-1.695-3.512-3.64-1.047-1.971-.833-3.964.205-2.038 1.5-3.905m5.393-20.065L53.37 80.683q1.023.871 1.679.843.677-.054 1.404-.906l.511.436q-.42.442-1.233 1.346-.838.883-1.648 1.833a51 51 0 0 0-1.593 1.964q-.786.97-1.177 1.477l-.511-.436q.727-.852.652-1.504-.053-.676-1.076-1.548L36.5 72.353q-1.095-.934-1.898-1.03-.805-.14-1.575.76l-.51-.436q.737-.717 1.36-1.446a31 31 0 0 0 1.548-1.961q.672-.984 1.145-1.883m8.982-9.57 15.705 15.521q.955.945 1.612.964.68-.005 1.467-.8l.478.473q-.45.41-1.329 1.251a47 47 0 0 0-1.778 1.706 51 51 0 0 0-1.733 1.842q-.855.91-1.283 1.387l-.477-.472q.788-.796.761-1.452-.003-.68-.96-1.623L45.041 62.762q-1.023-1.013-1.817-1.166-.793-.2-1.626.642l-.478-.472q.789-.66 1.464-1.343a31 31 0 0 0 1.687-1.842 19 19 0 0 0 1.28-1.794m16.583-4.138q1.806-1.48 3.715-1.93 1.91-.45 3.895.405t3.997 3.302q2.01 2.448 2.463 4.56.432 2.089-.38 3.872-.812 1.784-2.618 3.266-1.757 1.44-3.69 1.91-1.91.45-3.9-.36-1.986-.854-3.997-3.302t-2.463-4.56q-.427-2.133.384-3.917.837-1.804 2.594-3.246m.406.495q-.99.812-.439 2.843.53 2.007 3.253 5.32t4.59 4.224q1.866.91 2.855.098 1.015-.831.46-2.818-.531-2.007-3.254-5.32t-4.588-4.224q-1.862-.956-2.877-.123"/><path fill="#181306" d="M112.108 17.445q1.99-.706 3.471-.553 1.502.114 2.775.544.764.238.948-.2.203-.48-.138-1.82l.694-.245q.358 1.197.928 2.896a279 279 0 0 0 1.547 4.442l-.693.246q-.645-1.333-1.229-2.212a7.3 7.3 0 0 0-1.286-1.513q-.69-.604-1.689-.929a5 5 0 0 0-2.146-.495 6.4 6.4 0 0 0-2.21.377q-1.628.578-2.463 1.859-.846 1.251-1.044 2.985-.168 1.723.166 3.71.323 1.957 1.031 3.947a23.6 23.6 0 0 0 1.715 3.771q1.017 1.71 2.255 2.9 1.269 1.18 2.746 1.607 1.476.427 3.075-.14a6.1 6.1 0 0 0 1.861-1.068 5.2 5.2 0 0 0 1.353-1.737q.853-1.32.804-2.798-.06-1.506-.643-3.812l.693-.246q1.02 2.864 1.683 4.632a97 97 0 0 0 1.141 2.922l-.693.246q-.582-1.253-1.002-1.478-.389-.235-.902.422a17.4 17.4 0 0 1-1.889 2.233q-1.033 1.011-2.993 1.707-3.197 1.134-6.071.694-2.844-.45-5.04-2.422-2.195-1.971-3.419-5.408-1.201-3.376-.745-6.39.486-3.026 2.364-5.288 1.908-2.273 5.045-3.386m30.075-1.287-4.599 17.49 1.631-.332a5.4 5.4 0 0 0 2.187-.967q.988-.755 1.461-2.125.503-1.376.225-3.54l.659-.133q.466 2.289.798 3.756.326 1.436.593 2.427-1.424.224-2.967.504t-3.08.593q-1.599.325-3.286.7-1.681.405-3.205.781l4.599-17.489-1.756.357a5.2 5.2 0 0 0-2.212 1.004q-.933.712-1.367 2.106-.408 1.357-.169 3.496l-.658.133a188 188 0 0 0-.799-3.756 62 62 0 0 0-.593-2.426q1.456-.23 2.999-.511t3.048-.586q1.63-.331 3.287-.7a919 919 0 0 0 3.204-.782m14.581-2.02q2.808-.225 4.536 1.307t2.031 5.296l-10.495.836-.113-.601 6.54-.521a15.3 15.3 0 0 0-.423-2.855q-.33-1.323-.873-2.082t-1.34-.696q-1.117.09-1.801 1.556-.653 1.466-.551 4.731l.111.184v.802l.07.862q.176 2.2.893 3.524.748 1.32 1.756 1.882 1.006.53 1.995.451a5.2 5.2 0 0 0 1.356-.3 4.9 4.9 0 0 0 1.406-.883q.687-.633 1.243-1.704l.59.146a8.3 8.3 0 0 1-1.023 2.457 6.65 6.65 0 0 1-1.954 2.05q-1.217.834-3.003.977-2.17.173-3.902-.62-1.734-.793-2.842-2.599-1.076-1.807-1.309-4.71-.239-2.967.591-5.023.862-2.06 2.54-3.156 1.707-1.13 3.971-1.312m18.911-.467q1.344.051 2.321.441 1.012.36 1.447.696 1.06.777 1.379-.907l.672.025q-.097.894-.18 2.203a147 147 0 0 0-.161 3.42l-.671-.025a10.2 10.2 0 0 0-.52-2.358q-.403-1.169-1.239-1.937-.804-.767-2.147-.819-.927-.036-1.587.484-.66.486-.697 1.478a2.68 2.68 0 0 0 .512 1.717q.549.725 1.419 1.431.903.675 1.866 1.449 1.026.84 1.858 1.672a6.4 6.4 0 0 1 1.311 1.748q.477.947.428 2.226-.054 1.439-.927 2.494-.871 1.024-2.268 1.546-1.365.525-3.027.46a7.1 7.1 0 0 1-1.72-.257 6 6 0 0 1-1.261-.53 23 23 0 0 0-.786-.382 6 6 0 0 0-.659-.345q-.317-.108-.584.202-.236.31-.386.881l-.671-.025q.103-1.02.19-2.49t.18-3.9l.671.025q.126 1.734.587 3.097.463 1.33 1.297 2.131.867.77 2.21.822a2.6 2.6 0 0 0 1.064-.184q.52-.203.859-.704.371-.497.401-1.297.054-1.407-.839-2.37-.86-.962-2.226-2.103a88 88 0 0 1-1.888-1.706 8.2 8.2 0 0 1-1.404-1.847q-.537-1.013-.491-2.26.055-1.44.86-2.401.805-.962 2.07-1.394a7.3 7.3 0 0 1 2.737-.407m4.184-8.998q.527.436.532 1.173.003.736-.532 1.357a5.9 5.9 0 0 1-1.291 1.103q-.754.483-1.806 1.18-1.019.697-2.475 1.954l-.341-.301q1.024-1.69 1.516-2.824.492-1.166.843-1.985t.918-1.406a1.78 1.78 0 0 1 1.275-.688q.804-.096 1.361.437m16.62 10.96a8.4 8.4 0 0 1 2.201.634q1.004.417 1.604.93.743.635 1.068 1.463.36.801.208 1.781-.172 1.107-.981 1.726-.804.587-1.91.414t-1.673-.908q-.565-.737-.398-1.811.158-1.012.893-1.577.74-.598 1.597-.69-.202-.357-.675-.656a2.8 2.8 0 0 0-1.104-.4 2.85 2.85 0 0 0-1.827.298q-.816.456-1.479 1.39-.663.931-1.16 2.247a16.5 16.5 0 0 0-.715 2.933q-.38 2.435.005 3.92.416 1.49 1.276 2.207.891.722 1.935.885.6.093 1.326.012.757-.076 1.572-.532.848-.45 1.643-1.396l.507.274q-.53 1.115-1.502 2.162a6.5 6.5 0 0 1-2.355 1.608q-1.378.53-3.212.244-2.055-.32-3.593-1.467-1.502-1.173-2.223-3.197-.685-2.049-.222-5.022.443-2.845 1.754-4.617 1.349-1.797 3.272-2.501 1.923-.705 4.168-.354m4.348-8.585q.473.496.392 1.227-.082.732-.686 1.286a5.9 5.9 0 0 1-1.41.946q-.807.393-1.931.962-1.094.574-2.686 1.654l-.304-.34q1.215-1.558 1.834-2.628.625-1.1 1.069-1.874a4.6 4.6 0 0 1 1.075-1.29q.573-.558 1.346-.534.81-.003 1.301.591" opacity=".42"/><path fill="#181306" d="M243.475 23.662q.72.417 1.893 1.075t2.361 1.285q1.357.72 2.645 1.364t1.825.93q3.507 1.857 4.573 4.014 1.095 2.172.061 4.124-.524.99-1.657 1.693t-2.797.837-3.838-.547l-.03.056q2.553 1.605 3.705 3.192 1.151 1.587 1.261 3.021t-.505 2.593q-.943 1.782-2.521 2.504-1.576.722-3.675.444-2.083-.306-4.515-1.593-.679-.36-1.937-1.062a80 80 0 0 0-3.052-1.688q-1.245-.659-2.448-1.26-1.187-.628-1.953-.96l.3-.566q.935.423 1.477.492.543.07.954-.364.439-.42.978-1.437l7.428-14.027q.555-1.046.639-1.617.129-.583-.262-1.008-.348-.436-1.21-.93zm8.072 4.997q-1.103-.585-1.697-.283-.566.315-1.345 1.787l-7.428 14.026q-.524.99-.653 1.574-.099.599.207.978.334.394 1.154.828 2.037 1.079 3.644.3 1.65-.792 2.908-3.168 1.154-2.177.68-3.949-.447-1.755-2.963-3.089l-2.404-1.272.12-.227.134-.254 2.433 1.287q1.329.704 2.365.456 1.052-.276 1.889-1.173a10.2 10.2 0 0 0 1.496-2.14q1.108-2.094 1.012-3.484-.082-1.419-1.552-2.197m17.819 16.896q1.888 1.374 2.803 3.108t.586 3.87q-.327 2.135-2.193 4.696-1.865 2.56-3.797 3.53-1.913.942-3.845.605t-3.821-1.711q-1.838-1.337-2.778-3.09-.914-1.734-.631-3.862.329-2.136 2.193-4.697t3.798-3.53q1.958-.948 3.89-.612 1.957.356 3.795 1.693m-.377.517q-1.035-.753-2.864.29-1.81 1.02-4.335 4.485-2.523 3.465-2.937 5.5-.412 2.035.623 2.788 1.06.773 2.845-.265 1.81-1.017 4.334-4.484 2.524-3.465 2.937-5.5.457-2.043-.603-2.814m20.461 16.45q.966.935 1.32 1.766.398.831.343 1.578-.055.793-.562 1.638-.483.868-1.619 2.04l-5.987 6.185q-.935.966-.947 1.622.012.678.816 1.457l-.467.482a78 78 0 0 0-1.267-1.313 45 45 0 0 0-3.45-3.337 78 78 0 0 0-1.31-1.177l.467-.483q.69.667 1.3.59.61-.079 1.545-1.044l6.922-7.15q.557-.575.842-1.1.309-.548.232-1.067-.054-.543-.653-1.12a2.87 2.87 0 0 0-1.484-.768q-.84-.144-1.763.165-.877.309-1.612 1.067l-6.188 6.392q-.935.965-.992 1.577-.036.634.632 1.279l-.468.483q-.391-.423-1.174-1.225a39 39 0 0 0-1.589-1.625 50 50 0 0 0-1.839-1.69 82 82 0 0 0-1.425-1.288l.468-.483q.804.78 1.461.745.678-.01 1.614-.977l7.011-7.242q1.002-1.035 1.147-1.828.19-.795-.661-1.618l.468-.483q.669.78 1.359 1.448a30 30 0 0 0 1.861 1.666q.94.73 1.81 1.26l-2.004 2.069q1.711-.617 3.167-.143 1.457.474 2.676 1.653m-10.485 22.153.443-.368q1.028 1.185 2.556 1.121 1.504-.044 3.375-1.598l10.484-8.712q1.108-.921 1.338-1.695.255-.795-.482-1.68l.517-.429a21 21 0 0 0 1.195 1.586q.84 1.01 1.671 1.857.855.829 1.662 1.448l-10.681 8.876q-1.353 1.125-2.53 1.812t-2.293.948a6.6 6.6 0 0 1-2.262.133q-1.103-.124-2.372-.9-1.25-.75-2.621-2.399m27.139-15.563q.86 1.033.834 2.053.02 1.024-.866 1.76t-1.915.55q-.983-.18-1.843-1.213t-.879-2.057q.026-1.02.911-1.757.886-.735 1.87-.554 1.029.185 1.888 1.218m4.184 18.455q1.305 1.938 1.571 3.88.265 1.942-.774 3.836t-3.669 3.66-4.777 2.016q-2.121.23-3.821-.748t-3.005-2.916q-1.269-1.885-1.552-3.853-.266-1.942.729-3.844 1.04-1.894 3.669-3.661t4.777-2.016q2.166-.22 3.866.757 1.718 1.005 2.986 2.89m-.531.357q-.714-1.061-2.791-.707-2.05.336-5.608 2.728-3.56 2.392-4.644 4.161-1.084 1.77-.369 2.832.732 1.089 2.764.725 2.05-.336 5.609-2.728 3.558-2.391 4.643-4.161 1.13-1.761.396-2.85m15.306 26.115-12.044 5.892q-1.293.633-1.728 1.345-.407.697.1 1.732l-.603.295a21 21 0 0 0-.788-1.824 30 30 0 0 0-1.185-2.199 13.6 13.6 0 0 0-1.274-1.799l2.587-1.265q-1.776.014-3.013-.913-1.196-.91-1.928-2.405-.592-1.207-.642-2.109t.227-1.571q.306-.756 1.099-1.393t2.201-1.326l7.272-3.558q1.293-.633 1.7-1.331.448-.682-.072-1.746l.604-.295q.364.962.787 1.823.591 1.207 1.185 2.199a19 19 0 0 0 1.274 1.799l-11.9 5.823a7 7 0 0 0-1.208.733q-.475.411-.609.939-.105.515.248 1.233.381.775 1.107 1.168a3.4 3.4 0 0 0 1.672.429 4.1 4.1 0 0 0 1.922-.442l7.531-3.684q1.293-.633 1.7-1.331.448-.683-.072-1.746l.603-.295q.365.962.788 1.824.591 1.206 1.185 2.199.636 1.006 1.274 1.799m6.644 17.346q.333.969.117 1.719a2.4 2.4 0 0 1-.728 1.231q-.53.52-1.228.759-1.12.384-2.075-.033-.915-.397-1.279-1.456-.363-1.06-.057-1.841.347-.762 1.225-1.063.848-.29 1.517-.114.711.196 1.302.637a1.43 1.43 0 0 0-.322-.837 2.5 2.5 0 0 0-.858-.924 3.5 3.5 0 0 0-1.24-.556 5 5 0 0 0-1.409-.16 4.2 4.2 0 0 0-1.314.214l-8.022 2.749q-1.453.498-1.728 1.371-.265.901.224 2.325l-.636.218q-.208-.707-.636-2.049a66 66 0 0 0-.897-2.805 52 52 0 0 0-.903-2.43 91 91 0 0 0-.705-1.856l.635-.218q.364 1.06.964 1.328.61.298 1.882-.138l9.535-3.268q1.363-.467 1.852-1.108.531-.622.146-1.742l.636-.218q.242 1 .554 1.908.437 1.271.902 2.329.506 1.078 1.041 1.944l-2.816.965a5.8 5.8 0 0 1 1.816.46 4.6 4.6 0 0 1 1.508 1.039q.664.652.997 1.62M330.72 228.695a4 4 0 0 0-.466-.199 37 37 0 0 0-.542-.195 37 37 0 0 1-.542-.195q-.526-.166-1.37-.442-.85-.253-1.887-.556l-2.072-.605a92 92 0 0 0-1.94-.546l-1.994-.534-2.146-.526a45 45 0 0 1-1.962-.477 61 61 0 0 1-1.421-.356q-1.065-.286-1.615-.706-.547-.421-.663-.948-.145-.51.045-1.131.202-.665.78-1.404a7.4 7.4 0 0 1 1.319-1.36 5.6 5.6 0 0 1 1.6-.887q.843-.296 1.608-.09 1.043.28 1.801 1.327.752 1.07 1.223 2.563.465 1.516.563 3.082a17 17 0 0 1-.048 3.438q-.173 1.717-.587 3.071-.512 1.675-1.485 2.806-.98 1.152-2.247 1.607-1.251.484-2.642.111-1.39-.373-2.282-1.233-.897-.837-1.28-2.131-.388-1.272-.298-2.961.07-.801.254-1.571.154-.753.291-1.362l2.074-.139q-.22.636-.407 1.331a8 8 0 0 0-.252 1.398 7 7 0 0 0 .051 2.05q.19 1.018.77 1.746.575.75 1.617 1.03.998.267 1.83-.081.834-.347 1.455-1.149t.958-1.904q.464-1.515.581-3.048a19.4 19.4 0 0 0-.029-3.186 9.7 9.7 0 0 0-.426-2.3q-.322-1.079-.826-1.81-.511-.71-1.114-.87a1.4 1.4 0 0 0-.842.047 3.866 3.866 0 0 0-1.522 1.206 2.8 2.8 0 0 0-.371.72q-.118.39.096.671.208.304.788.46.672.18 1.861.474 1.212.3 2.61.651 1.421.356 2.696.698l2.133.572q1.128.327 2.195.614 1.06.309 1.871.526.804.241 1.152.334.231.063.54.12.324.087.633.145.308.058.508.062zm-4.748 6.425q-.693.708-1.627 1.55a42 42 0 0 1-1.818 1.599q-.913.772-1.546 1.2l-1.196-1.339a9 9 0 0 0 1.204-.82q.684-.512 1.371-1.122.712-.604 1.346-1.204.659-.593 1.128-1.063zm2.61-14.2a33 33 0 0 0-.653 1.563 42 42 0 0 0-.43 1.325q-.26.85-.49 1.93a65 65 0 0 0-.434 2.243q-.182 1.168-.296 2.28-.098 1.14-.103 2.058l-1.822-.439q.066-.951.193-2.109.151-1.15.363-2.336.205-1.161.428-2.219.223-1.059.455-1.816.301-.987.535-1.669.226-.659.478-1.237zm-21.554 49.747a43.087 43.087 0 0 0-2.677 3.108 54 54 0 0 0-2.508 3.473 33 33 0 0 0-1.999 3.405l-1.55-1.006a43 43 0 0 1 2.118-3.441 74 74 0 0 1 2.479-3.436q.636-.813 1.283-1.561.633-.729 1.344-1.522zm-1.576 8.952-.545-.468-.574-.429a52 52 0 0 0-.897-.639 39 39 0 0 0-1.193-.803l-1.228-.797q-1.148-.745-2.324-1.452-1.178-.706-2.309-1.356-1.132-.648-2.128-1.238a33 33 0 0 1-1.775-1.067 4.6 4.6 0 0 1-1.055-.941 2.8 2.8 0 0 1-.632-1.208q-.182-.66.059-1.472.207-.807.947-1.751 1.494-1.908 3.059-2.432 1.55-.505 2.898.37.846.549 1.175 1.447.335.93.071 2.041-.278 1.13-1.255 2.378a10.7 10.7 0 0 1-2.033 2.014 11.8 11.8 0 0 1-2.23 1.374q-1.144.569-2.291.908-1.125.351-2.163.591l-.697-1.707a24 24 0 0 0 3.305-.847 12.7 12.7 0 0 0 2.766-1.283 8.5 8.5 0 0 0 2.184-1.974q.844-1.077.913-2.058.075-.948-.649-1.419-.765-.497-1.691-.128-.906.381-1.705 1.401-.637.812-.695 1.43-.073.636.276 1.12.336.502 1 .934.543.352 1.499.916.956.562 2.087 1.212 1.152.661 2.329 1.369a74 74 0 0 1 2.184 1.36l1.932 1.254 1.43.928a12 12 0 0 0 1.287.722zm7.19-9.412a9 9 0 0 0-.319-.407q-.198-.213-.415-.44a8 8 0 0 1-.383-.363 48 48 0 0 0-1.157-1.121q-.676-.61-1.478-1.33a78 78 0 0 0-1.62-1.421 52 52 0 0 0-1.633-1.288 25.5 25.5 0 0 0-2.904-1.914 40 40 0 0 0-1.528-.763q.345.452.72.98l.751 1.058q.362.548.645.96l-1.251.356q-.507-.671-1.15-1.516l-1.231-1.569a14 14 0 0 0-1.017-1.144 12 12 0 0 0-.404-.376 3 3 0 0 0-.443-.287l-.342-.223q-.216-.111-.392-.197l.935-1.388q1.31.422 3.097 1.241 1.794.85 3.827 2.17a33 33 0 0 1 2.261 1.61q1.14.91 2.204 1.801 1.049.909 1.912 1.668.867.792 1.418 1.291.312.26.665.546t.675.495zm-38.906 41.451-.355-.567q-.247-.352-.489-.736a16 16 0 0 0-.484-.654l-1.233-1.565-1.484-1.885a65 65 0 0 0-1.466-1.785 129 129 0 0 1-1.75-2.029 199 199 0 0 1-1.705-1.972 34 34 0 0 1-1.278-1.508 4 4 0 0 1-.674-1.24 2.64 2.64 0 0 1-.063-1.316q.114-.665.646-1.34t1.546-1.316q1.401-.885 2.733-1.275 1.333-.391 2.488-.16 1.148.262 1.995 1.337.668.849.669 1.892.002 1.044-.808 2.177-.794 1.152-2.539 2.254a15 15 0 0 1-3.154 1.513 19 19 0 0 1-3.326.831 20 20 0 0 1-3.228.261 21 21 0 0 1-2.835-.128l-.155-2.049q1.315.243 2.829.274a18 18 0 0 0 3.08-.139 15.4 15.4 0 0 0 3.103-.69 12.1 12.1 0 0 0 2.85-1.321q1.582-1 2.063-2.01t-.128-1.783q-.609-.772-1.762-.694-1.138.099-2.599 1.022-1.115.705-1.292 1.522-.161.837.61 1.817.416.528 1.14 1.37.738.86 1.58 1.853.843.992 1.641 1.928.812.955 1.391 1.691l1.916 2.432q.49.623.822 1.005a16 16 0 0 0 1.165 1.326q.273.307.467.439zm-1.95-4.444q-.507.32-1.324.865a122 122 0 0 0-3.635 2.523q-.914.69-1.672 1.31l-1.174-1.375q.773-.602 1.722-1.286l1.858-1.344q.945-.653 1.782-1.211.817-.544 1.344-.878zm-52.636 17.533a3.25 3.25 0 0 0 1.062 1.563q.734.633 1.777.82 1.026.215 2.215-.077a15 15 0 0 0 2.473-.831q1.122-.498 2.011-1.013.867-.51 1.507-.864.483-.292.937-.601.43-.303.79-.589l1.296 1.974q-.474.165-1.004.395-.553.235-1.029.475-.779.389-1.793.91-1.037.526-2.252 1.047-1.238.528-2.566.854-1.655.408-3.153.136a5.45 5.45 0 0 1-2.615-1.23q-1.133-.928-1.659-2.55-.609-1.87-.291-3.527.324-1.633 1.421-3.061 1.08-1.4 2.784-2.584t3.861-2.06l1.613 1.476q-2.016.768-3.609 1.752-1.585 1.007-2.593 2.166-1.03 1.167-1.344 2.525-.336 1.365.161 2.894m13.127 7.861q-1.023.03-2.41.174-1.411.15-2.884.341-1.49.219-2.778.437-1.311.224-2.174.437l-.291-1.827 2.335-.402q1.32-.202 2.762-.409 1.426-.179 2.784-.34 1.34-.133 2.395-.22zm-50.534 7.623a45 45 0 0 0-2.888-.389 79 79 0 0 0-3.423-.277 57 57 0 0 0-2.302-.089 81 81 0 0 0-2.234-.013q-1.081.007-1.948.052l.094-1.966a86 86 0 0 1 4.181-.015q1.176.046 2.277.112a74 74 0 0 1 6.336.643zm-.494-9.718q.273-.68.426-1.369.153-.664.184-1.311.066-1.39-1.282-2.337-1.373-.923-4.248-1.095a50 50 0 0 0-3.191-.094 31 31 0 0 0-2.819.168q-1.304.138-2.228.371l.075-2.063a24 24 0 0 1 2.152-.28 26 26 0 0 1 2.794-.145 42 42 0 0 1 3.264.074q2.42.145 4.119.775 1.7.631 2.561 1.716.86 1.086.788 2.596a9 9 0 0 1-.253 1.763 54 54 0 0 1-.41 1.539zm-13.099 11.598q-.291-.45-.621-1.07a22 22 0 0 1-.637-1.241 16 16 0 0 1-.547-1.114l1.322-.522q.324.765.829 1.756.504.993.974 1.717zm-2.681.802a20 20 0 0 1-.668-1.098 47 47 0 0 1-.685-1.243 10 10 0 0 1-.526-1.065l1.345-.497q.346.815.853 1.758.482.967.977 1.669zm-48.486-10.304a8 8 0 0 1-.213-1.149 44 44 0 0 1-.182-1.343 12 12 0 0 1-.13-1.221l1.443-.085q.005.537.085 1.205.08.666.183 1.342.102.677.248 1.188zm-2.856-.023q-.137-.535-.239-1.21-.126-.684-.228-1.359-.103-.676-.126-1.169l1.443-.085q.04.882.201 1.91.128 1.043.36 1.842zm9.857-.506q-.047.417-.087.938-.063.513-.094 1.012l-2.032-.488q.173-.651.319-1.542.114-.876.201-1.814.078-.916.141-1.735a20 20 0 0 0-.092-3.325q-.186-1.701-.493-2.936a17 17 0 0 0-.209-.791 19 19 0 0 0-.261-.733l1.439-.929q.358.258.997.594t1.377.682q.729.368 1.467.714t1.35.622l-.757 1.407q-.635-.283-1.305-.605-.693-.33-1.306-.604a11 11 0 0 1-.99-.49q.172.88.318 2.005.145 1.124.23 2.329.054 1.22.013 2.352-.045 1.082-.117 1.922a65 65 0 0 0-.109 1.415m8.976 1.316a57 57 0 0 0-3.52-1.644 45 45 0 0 0-3.34-1.272 41 41 0 0 0-2.961-.877 36 36 0 0 0-1.997-.45 49 49 0 0 0-2.176-.336 25 25 0 0 0-2.097-.154l.542-1.818q.883.068 1.914.215 1.023.17 2.035.361 1.004.214 1.862.4 2.268.548 4.915 1.49a73 73 0 0 1 5.531 2.302zm-.489-8.319a12 12 0 0 0 1.458-1.279q.604-.62.933-1.393.669-1.568-.417-2.807t-3.602-2.184a32 32 0 0 0-3.203-1.043 25 25 0 0 0-2.817-.544l.822-1.742q1.134.211 2.643.584 1.509.372 3.393 1.087 2.118.774 3.48 1.858 1.36 1.085 1.784 2.413.424 1.329-.208 2.808a6.5 6.5 0 0 1-1.065 1.703 20 20 0 0 1-1.59 1.587zM84.2 313.533q.235-.18.57-.465.315-.3.65-.585.315-.299.529-.526.53-.526 1.188-1.225.624-.696 1.313-1.461a42 42 0 0 0 1.269-1.555q1.215-1.566 1.892-2.946.66-1.361.725-2.369.046-1.023-.62-1.538-.36-.279-.981-.247-.638.05-1.419.321-.816.274-1.656.711-.875.441-1.655.954l-.026-2.165q1.97-1.044 3.38-1.461 1.377-.414 2.346-.328.95.072 1.595.572.892.69 1.167 1.931.258 1.258-.403 3.072-.677 1.833-2.536 4.291-.63.841-1.413 1.776-.802.92-1.54 1.738l-1.235 1.309q-.28.297-.706.783a4.6 4.6 0 0 0-.627.874zm-9.423-8.148q.047-.99.35-2.146.266-1.154.743-2.355.443-1.2 1.044-2.395.583-1.21 1.3-2.317.68-1.105 1.408-2.051l2.061.6q-1.005 1.275-1.874 2.718a28 28 0 0 0-1.554 2.936 21 21 0 0 0-1.107 2.949q-.421 1.456-.447 2.736zm-35.473-32.436q.303-.103.67-.24.354-.156.836-.379.32-.165.972-.477l1.449-.751 1.598-.828 1.492-.773a69 69 0 0 0 2.21-1.2q1.147-.648 2.215-1.282 1.07-.634 1.959-1.15a38 38 0 0 1 1.423-.791 3.65 3.65 0 0 1 1.65-.398q.892-.032 1.83.532.945.531 1.81 1.858 1.416 2.171 1.354 3.737-.042 1.554-1.576 2.35a3.28 3.28 0 0 1-2.058.34q-1.092-.187-2.178-1.023-1.11-.824-2.052-2.272-1.036-1.587-1.536-3.185a15 15 0 0 1-.697-3.081q-.164-1.475-.094-2.722.05-1.236.18-2.084l2.117.141a15.4 15.4 0 0 0-.328 2.295 15 15 0 0 0 .014 2.601q.107 1.344.565 2.747.425 1.393 1.316 2.761.944 1.447 1.954 1.946.996.479 1.742.092.468-.243.69-.734.2-.48.028-1.225-.172-.744-.814-1.73a4.8 4.8 0 0 0-.844-.988 2.07 2.07 0 0 0-1.074-.466q-.6-.091-1.326.284-.618.32-1.572.869-.988.539-2.07 1.153-1.102.626-2.121 1.207-1.03.561-1.734.926l-1.47.762-1.513.784-1.428.74q-.695.333-1.249.62-.255.132-.647.363t-.579.38zm7.343 6.496a36 36 0 0 0-.59-1.254q-.347-.708-.734-1.476a82 82 0 0 0-.81-1.462 49 49 0 0 0-.753-1.197 67 67 0 0 0-2.692-3.823 53 53 0 0 0-3.073-3.706l1.569-.786q.848 1.04 1.828 2.28t1.97 2.583q.977 1.323 1.855 2.67a32 32 0 0 1 1.024 1.701q.566.999 1.097 1.987.517.97.873 1.646zm4.583-2.241a55 55 0 0 0-.616-1.294q-.347-.708-.764-1.433l-.793-1.391a43 43 0 0 0-.726-1.157 77 77 0 0 0-1.912-2.802q-.99-1.343-1.983-2.603a68 68 0 0 0-2.093-2.466l1.612-.808a63 63 0 0 1 1.566 1.877 117 117 0 0 1 2.878 3.889q.69 1.014 1.437 2.16.445.683.993 1.61.534.906 1.074 1.864.525.938.912 1.706zm-34.15-50.913q.12-.02.438-.022l.626-.052q.285-.046.456-.05a26 26 0 0 0 1.237-.175l1.706-.276 1.872-.302a74 74 0 0 1 1.771-.31q.825-.157 1.393-.249l-.5 1.949-.994.161-1.564.252a67 67 0 0 0-1.772.311 49 49 0 0 0-2.733.514q-.468.1-.884.215-.44.12-.577.166zm6.06 11.909a119 119 0 0 0-.509-2.175 654 654 0 0 1-.667-2.562 168 168 0 0 1-.691-2.776L20.627 228q-.315-1.308-.56-2.409l-.469-2.109-.437-1.968a52 52 0 0 1-.341-1.644l-.255-1.148 1.758-.259q.172.991.518 2.659.317 1.647.89 4.224.338 1.523.755 3.179.388 1.636.805 3.292t.861 3.21q.415 1.535.801 2.832zm4.16-13.413q1.564-.252 2.734.044 1.165.273 1.869 1.009.699.713.938 1.79.16.726.08 1.468a3.9 3.9 0 0 1-.482 1.364 3.7 3.7 0 0 1-1.063 1.069q-.69.427-1.638.58a4.16 4.16 0 0 1-2.234-.222q-1.049-.413-1.802-1.262a4.44 4.44 0 0 1-1.003-1.974q-.307-1.381.135-2.376.412-1.013 1.398-1.657.962-.64 2.337-.863a9 9 0 0 1 2.494-.038q1.305.129 2.62.742 1.308.59 2.559 1.795 1.22 1.186 2.295 3.149l-1.215 1.822a16 16 0 0 0-1.607-2.702q-.873-1.169-1.92-1.898a6.2 6.2 0 0 0-2.281-.991q-1.242-.285-2.71-.048-1.611.26-2.171 1.054a2.12 2.12 0 0 0-.347 1.755q.135.609.563 1.098.405.493 1.051.753.642.236 1.424.11 1.114-.18 1.573-.982.455-.826.241-1.787a2.12 2.12 0 0 0-.678-1.176q-.542-.447-1.418-.524-.905-.096-2.119.294z"/>
</symbol>

<!-- SUN -->

<symbol id="sun" width="256" height="257" viewBox="0 0 256 257" fill="none" >
<circle cx="128" cy="128.5" r="95.801" fill="#FFB531"/><path stroke="#FFB531" stroke-dasharray="0.1 12" stroke-linecap="round" stroke-linejoin="round" stroke-width="3" d="M128 26.436c-53.42 0-102.064 40.826-102.064 102.064 0 55.158 46.906 102.064 102.064 102.064S230.064 185.395 230.064 128.5 181.421 26.436 128 26.436"/><path stroke="#FFB531" stroke-dasharray="0.1 10" stroke-linecap="round" stroke-linejoin="round" stroke-width="2" d="M128 17.845c-58.098 0-111 44.4-111 111 0 59.987 51.013 111 111 111s111-49.124 111-111c0-61.877-52.902-111-111-111"/><path stroke="#FFB531" stroke-dasharray="0.1 10" stroke-linecap="round" stroke-linejoin="round" stroke-width="2" d="M120.455 8.417C57.603 12.367 3.39 63.996 7.918 136.045c4.077 64.896 62.732 116.615 127.627 112.537 64.896-4.078 116.744-60.688 112.537-127.628S183.306 4.468 120.455 8.417"/>
</symbol>
</svg>