<svg xmlns="http://www.w3.org/2000/svg" xmlns:xlink="http://www.w3.org/1999/xlink" >

<!-- ABOUT-ME FRAME -->

	<symbol id="about-me__frame" viewBox="0 0 1028 518"  preserveAspectRatio="none" fill="none">
		<path pathLength="1" d="M2 0.595215C2 0.595215 2 41.0423 47.9999 41.0423C82.8117 41.0423 979.5 44.6376 979.5 44.6376C979.5 44.6376 1025 44.6376 1025 84.6352C1025 124.633 1025 476.522 1025 476.522C1025 476.522 1025 515.621 979.5 516.07C940.289 516.458 673.915 516 512.694 516C512.694 516 471.5 516 471.5 473.376C471.5 430.753 471.5 226.588 471.5 131" stroke="#181306" stroke-width="2"/>
	</symbol>

<!-- STAR -->

	<symbol id="star" viewBox="0 0 250 250" fill="none">
		<path fill="#E27A46" d="M123.562 1.48631C124.349 0.673579 125.651 0.673579 126.438 1.48631L140.966 16.5074C141.586 17.1479 142.554 17.3013 143.341 16.8836L161.801 7.08726C162.799 6.55722 164.039 6.95987 164.535 7.97574L173.711 26.7512C174.102 27.5518 174.976 27.997 175.853 27.8429L196.436 24.2303C197.55 24.0349 198.604 24.8008 198.763 25.9203L201.687 46.6123C201.812 47.4946 202.505 48.188 203.388 48.3127L224.08 51.2374C225.199 51.3957 225.965 52.4498 225.77 53.5635L222.157 74.1466C222.003 75.0242 222.448 75.8979 223.249 76.2892L242.024 85.465C243.04 85.9614 243.443 87.2006 242.913 88.1994L233.116 106.659C232.699 107.446 232.852 108.414 233.493 109.034L248.514 123.562C249.326 124.349 249.326 125.651 248.514 126.438L233.493 140.966C232.852 141.586 232.699 142.554 233.116 143.341L242.913 161.801C243.443 162.799 243.04 164.039 242.024 164.535L223.249 173.711C222.448 174.102 222.003 174.976 222.157 175.853L225.77 196.436C225.965 197.55 225.199 198.604 224.08 198.763L203.388 201.687C202.505 201.812 201.812 202.505 201.687 203.388L198.763 224.08C198.604 225.199 197.55 225.965 196.436 225.77L175.853 222.157C174.976 222.003 174.102 222.448 173.711 223.249L164.535 242.024C164.039 243.04 162.799 243.443 161.801 242.913L143.341 233.116C142.554 232.699 141.586 232.852 140.966 233.493L126.438 248.514C125.651 249.326 124.349 249.326 123.562 248.514L109.034 233.493C108.414 232.852 107.446 232.699 106.659 233.116L88.1994 242.913C87.2006 243.443 85.9614 243.04 85.465 242.024L76.2892 223.249C75.8979 222.448 75.0242 222.003 74.1466 222.157L53.5635 225.77C52.4498 225.965 51.3957 225.199 51.2374 224.08L48.3127 203.388C48.188 202.505 47.4946 201.812 46.6123 201.687L25.9203 198.763C24.8008 198.604 24.0349 197.55 24.2303 196.436L27.8429 175.853C27.997 174.976 27.5518 174.102 26.7512 173.711L7.97574 164.535C6.95987 164.039 6.55722 162.799 7.08726 161.801L16.8836 143.341C17.3013 142.554 17.1479 141.586 16.5074 140.966L1.48631 126.438C0.673579 125.651 0.673579 124.349 1.48631 123.562L16.5074 109.034C17.1479 108.414 17.3013 107.446 16.8836 106.659L7.08726 88.1994C6.55722 87.2006 6.95987 85.9614 7.97574 85.465L26.7512 76.2892C27.5518 75.8979 27.997 75.0242 27.8429 74.1466L24.2303 53.5635C24.0349 52.4498 24.8008 51.3957 25.9203 51.2374L46.6123 48.3127C47.4946 48.188 48.188 47.4946 48.3127 46.6123L51.2374 25.9203C51.3957 24.8008 52.4498 24.0349 53.5635 24.2303L74.1466 27.8429C75.0242 27.997 75.8979 27.5518 76.2892 26.7512L85.465 7.97574C85.9614 6.95987 87.2006 6.55722 88.1994 7.08726L106.659 16.8836C107.446 17.3013 108.414 17.1479 109.034 16.5074L123.562 1.48631Z"/>
	</symbol>

<!-- SPARK -->

	<symbol id="spark" viewBox="0 0 227 204">
		<path d="M226.1 101.614c-103.893 4.573-107.963 8.231-113.05 101.612-5.087-93.381-9.157-97.039-113.05-101.612C103.893 97.042 107.963 93.384 113.05.002c5.087 93.382 9.157 97.04 113.05 101.612"/>
	</symbol>

<!-- SUN -->

	<symbol viewBox="0 0 256 257" fill="none" id="sun">
		<circle cx="130" cy="130" r="95" fill="#FFB531"/>
		<circle cx="130" cy="130" r="105" stroke="#FFB531" stroke-dasharray="0.1 12" stroke-linecap="round" stroke-linejoin="round" stroke-width="3" fill="none">
		<animateTransform
			attributeType="XML"
			attributeName="transform"
			type="rotate"
			from="360 130 130"
			to="0 130 130"
			dur="20s"

			repeatCount="indefinite" />
		</circle>
		<circle cx="130" cy="130" r="115" stroke="#FFB531" stroke-dasharray="0.1 10" stroke-linecap="round" stroke-linejoin="round" stroke-width="2" fill="none"/>
		<circle cx="130" cy="130" r="125" stroke="#FFB531" stroke-dasharray="0.1 10" stroke-linecap="round" stroke-linejoin="round" stroke-width="2" fill="none"/>
	</symbol>
</svg>