<svg xmlns="http://www.w3.org/2000/svg">

<!-- STAR -->
<symbol id="star" width="250" height="250" fill="none">
<path fill="#E27A46" d="M123.562 1.486a2 2 0 0 1 2.876 0l14.528 15.021a2 2 0 0 0 2.375.377l18.46-9.797a2 2 0 0 1 2.734.889l9.176 18.775a2 2 0 0 0 2.142 1.092l20.583-3.613a2 2 0 0 1 2.327 1.69l2.924 20.692a2 2 0 0 0 1.701 1.7l20.692 2.925a2 2 0 0 1 1.69 2.326l-3.613 20.584a2 2 0 0 0 1.092 2.142l18.775 9.176a2 2 0 0 1 .889 2.734l-9.797 18.46a2 2 0 0 0 .377 2.375l15.021 14.528a2 2 0 0 1 0 2.876l-15.021 14.528a2 2 0 0 0-.377 2.375l9.797 18.46a2 2 0 0 1-.889 2.734l-18.775 9.176a2 2 0 0 0-1.092 2.142l3.613 20.583a2 2 0 0 1-1.69 2.327l-20.692 2.924a2 2 0 0 0-1.701 1.701l-2.924 20.692a2 2 0 0 1-2.327 1.69l-20.583-3.613a2 2 0 0 0-2.142 1.092l-9.176 18.775a2 2 0 0 1-2.734.889l-18.46-9.797a2 2 0 0 0-2.375.377l-14.528 15.021a2 2 0 0 1-2.876 0l-14.528-15.021a2 2 0 0 0-2.375-.377l-18.46 9.797a2 2 0 0 1-2.734-.889l-9.176-18.775a2 2 0 0 0-2.142-1.092l-20.584 3.613a2 2 0 0 1-2.326-1.69l-2.924-20.692a2 2 0 0 0-1.7-1.701l-20.693-2.924a2 2 0 0 1-1.69-2.327l3.613-20.583a2 2 0 0 0-1.092-2.142l-18.775-9.176a2 2 0 0 1-.889-2.734l9.797-18.46a2 2 0 0 0-.377-2.375l-15.02-14.528a2 2 0 0 1 0-2.876l15.02-14.528a2 2 0 0 0 .377-2.375l-9.797-18.46a2 2 0 0 1 .889-2.734l18.775-9.176a2 2 0 0 0 1.092-2.142L24.23 53.563a2 2 0 0 1 1.69-2.326l20.692-2.924a2 2 0 0 0 1.7-1.7l2.925-20.693a2 2 0 0 1 2.326-1.69l20.584 3.613a2 2 0 0 0 2.142-1.092l9.176-18.775a2 2 0 0 1 2.734-.889l18.46 9.797a2 2 0 0 0 2.375-.377z"/>
</symbol>

<!-- SUN -->

<symbol id="sun" viewBox="0 0 270 270" >
<circle cx="130" cy="130" r="95" fill="#FFB531"/>
 <g>
      <circle cx="125" cy="125" r="105" stroke="#FFB531"
        stroke-dasharray="0.1 12" stroke-linecap="round" stroke-width="3" fill="none"/>

      <!-- Rotating Circle with Animation -->
      <circle cx="125" cy="125" r="115" stroke="#FFB531"
        stroke-dasharray="0.1 10" stroke-linecap="round" stroke-width="2" fill="none">
        <animateTransform
          attributeType="XML"
          attributeName="transform"
          type="rotate"
          from="360 125 125"
          to="0 125 125"
          dur="20s"
          repeatCount="indefinite"/>
      </circle>

      <circle cx="125" cy="125" r="125" stroke="#FFB531"
        stroke-dasharray="0.1 10" stroke-linecap="round" stroke-width="2" fill="none"/>
    </g>

</symbol>

</svg>