<svg xmlns="http://www.w3.org/2000/svg">
	<symbol id="arrow-up" viewBox="-2.9 0 32 32">
		<path d="M0 15.872q0-.832.576-1.408l12.512-12.48 12.48 12.48q.576.576.576 1.408t-.576 1.376q-.576.576-1.376.576t-1.376-.576L15.04 9.472v20.544q0 .8-.576 1.376t-1.376.576q-.832 0-1.408-.576t-.544-1.376V9.472l-7.808 7.776q-.576.576-1.376.576t-1.376-.576Q0 16.704 0 15.872"/>
	</symbol>
	<symbol id="arrow-prev" viewBox="0 0 32 32">
		<path d="M0 15.904 12.48 3.392q.608-.576 1.408-.576t1.376.576.576 1.408-.576 1.376l-7.776 7.776h20.544q.8 0 1.376.576t.576 1.376-.576 1.376-1.376.576H7.488l7.776 7.776q.576.576.576 1.408t-.576 1.376-1.376.576-1.408-.576z"/>
	</symbol>
	<symbol id="arrow-next" viewBox="0 0 32 32">
		<path d="M0 16.096q0-.832.576-1.376t1.376-.544h20.544l-7.744-7.808q-.608-.576-.608-1.408t.608-1.344q.544-.608 1.344-.608t1.408.608l12.48 12.48-12.48 12.512q-.64.576-1.408.576t-1.344-.576-.608-1.408.608-1.376l7.744-7.744H1.952q-.8 0-1.376-.576T0 16.096"/>
	</symbol>

	<symbol id="mail" viewBox="0 0 32 32">
		<path fill="hsl(45, 100%, 96%)" d="M32 12.672v14.176q0 1.184-.832 2.016t-2.016.864H2.848q-1.152 0-2.016-.864T0 26.848V12.672q.8.864 1.792 1.568 6.464 4.384 8.896 6.144 1.024.768 1.632 1.184t1.696.864 1.952.416h.064q.896 0 1.952-.416t1.696-.864 1.632-1.184q3.04-2.176 8.896-6.144 1.024-.704 1.792-1.568m0-5.248q0 1.408-.864 2.688T28.96 12.32q-6.72 4.672-8.384 5.792-.16.128-.736.544t-.96.704-.928.576-1.024.48-.896.16h-.064q-.384 0-.864-.16t-1.024-.48-.96-.576-.96-.704-.736-.544q-1.632-1.12-4.704-3.232t-3.648-2.56q-1.12-.736-2.08-2.048T0 7.808q0-1.376.736-2.304t2.112-.928h26.304q1.152 0 2.016.832T32 7.424"/>
	</symbol>
	<symbol id="phone" viewBox="0 0 32 32">
		<path fill="hsl(45, 100%, 96%)" d="M25.152 22.144q0 .48-.192 1.248t-.384 1.216q-.352.896-2.176 1.92-1.664.896-3.296.896-.48 0-.96-.064t-1.024-.224-.832-.256-.992-.352-.896-.32q-1.728-.64-3.104-1.504-2.272-1.408-4.736-3.84t-3.84-4.736q-.864-1.376-1.472-3.104-.064-.16-.32-.896t-.384-.992-.256-.832T.064 9.28 0 8.352q0-1.664.928-3.328Q1.92 3.2 2.816 2.848q.448-.192 1.216-.384t1.248-.192q.256 0 .384.064.32.096.96 1.344.192.352.512.992t.64 1.12.544.96q.064.064.32.448t.384.64.128.512q0 .352-.512.864t-1.12.992-1.088.96-.512.8q0 .16.096.416t.128.352.256.448.224.32q1.344 2.464 3.104 4.224t4.192 3.104q.032 0 .32.192t.448.256.352.16.416.064q.32 0 .8-.512t.96-1.088.992-1.12.896-.512q.224 0 .48.128t.64.384.448.32q.448.256.96.544t1.152.64.96.544q1.248.608 1.344.928.064.128.064.384"/>
	</symbol>
	<symbol id="github" viewBox="0 0 32 32">
		<path fill="hsl(45, 100%, 96%)" d="M13.728 2.272q3.712 0 6.88 1.856T25.6 9.12 27.424 16q0 4.48-2.624 8.064t-6.752 4.96q-.48.096-.704-.128t-.224-.544v-3.776q0-1.728-.928-2.528 1.024-.096 1.824-.32t1.696-.704 1.44-1.184.96-1.856.352-2.688q0-2.144-1.408-3.68.672-1.632-.128-3.648-.512-.16-1.472.192t-1.632.8l-.672.416q-1.664-.48-3.424-.48t-3.456.48q-.256-.192-.736-.48t-1.504-.704-1.504-.224q-.8 2.016-.16 3.648-1.408 1.536-1.408 3.68 0 1.504.384 2.656t.928 1.888 1.44 1.184 1.664.704 1.824.32q-.672.64-.864 1.856-.384.16-.8.256t-1.024.096-1.152-.384-.992-1.12q-.352-.576-.864-.928t-.896-.448l-.352-.032q-.384 0-.512.064t-.096.224.16.256.224.192l.128.096q.384.192.768.672t.576.928l.192.416q.224.672.768 1.088t1.184.544 1.248.096.992-.032l.416-.096v1.6q0 .896.032.96 0 .32-.256.544t-.704.128q-4.128-1.376-6.752-4.96T0 16q0-3.744 1.856-6.88t4.96-4.992 6.912-1.856M5.184 21.984q.064-.128-.096-.224-.192-.032-.256.032-.032.128.128.224t.224-.032m.576.608q.128-.096-.032-.288-.192-.16-.288-.064-.128.096.032.288t.288.064m.512.8q.192-.128 0-.352-.128-.224-.288-.096-.16.096 0 .32t.288.128m.768.736q.128-.128-.064-.32-.224-.224-.352-.064-.16.16.064.352.192.192.352.032m1.024.448q.032-.192-.256-.288-.256-.064-.32.128t.224.288q.256.096.352-.128m1.12.096q0-.224-.32-.192-.288 0-.288.192 0 .224.32.192.288 0 .288-.192m1.024-.16q-.032-.224-.32-.16-.288.032-.256.256t.32.128.256-.224"/>
	</symbol>

</svg>