<svg xmlns="http://www.w3.org/2000/svg" width="515" height="288" fill="none"><path stroke="url(#a)" d="M499.838 287.182c-1.859-45.344 61.571-52.788-62.302-106.542-123.873-53.753-176.845-30.239-220.748-36.425-49.737-7.008-151.372-154.6-190.84-142.414M503.414 274.84c-5.528-45.868 56.128-57.062-69.861-104.444-125.988-47.381-176.067-20.494-219.669-24.243C164.488 141.905 52.663-1.9 14.915 12.725M505.909 262.16c-9.162-46.189 50.455-61.071-77.087-101.891-127.541-40.82-174.514-10.69-217.623-11.992C162.361 146.801 40.872 7.406 5.006 24.398M506.765 255.59c-10.994-46.273 47.485-63.007-80.631-100.421s-173.429-5.687-216.215-5.743C161.447 149.362 35.251 12.446.402 30.612M504.713 268.96c-7.229-46.043 53.508-58.968-73.276-103.309s-175.438-15.923-218.834-18.53C163.44 144.167 47.038 2.344 10.149 18.083"/><defs><linearGradient id="a" x1="542.883" x2="122.61" y1="-44.936" y2="386.292" gradientUnits="userSpaceOnUse"><stop stop-color="#181306" stop-opacity="0"/><stop offset="1" stop-color="#181306"/></linearGradient></defs></svg>