<svg xmlns="http://www.w3.org/2000/svg" width="46" height="46" fill="none"><path fill="#181306" d="M20.837 1.078C11.421 2.24 3.871 8.922 1.604 18.047c-1.83 7.406.15 15.061 5.352 20.651 5.91 6.343 14.76 8.768 22.958 6.28 3.715-1.116 7.411-3.418 9.975-6.2 5.144-5.56 7.087-12.773 5.523-20.496-.328-1.597-1.688-4.82-2.846-6.728-1.835-3.003-5.062-6.049-8.292-7.838-3.902-2.163-9.109-3.194-13.437-2.638m7.178 1.665c4.042.895 7.691 2.926 10.627 5.942 3.166 3.266 5.13 7.273 5.795 11.878.215 1.403.214 1.437-.198 2.211-1.344 2.455-5.107 4.29-7.472 3.639-1.09-.288-1.626-.638-2.75-1.752-1.354-1.349-1.596-1.324-2.874.376-.364.483-.774.81-1.07.866-.4.086-.534.012-.891-.485-.632-.922-1.422-1.781-1.646-1.79-.103-.005-.691.468-1.301 1.045-2.297 2.173-3.494 1.984-3.677-.57-.13-1.812-.73-1.855-1.699-.142-.727 1.312-1.884 2.604-2.839 3.183-.812.481-2.31.865-2.75.708-.118-.056-.425-.138-.68-.2-.664-.184-1.557-1.048-1.258-1.207.124-.081.385-.139.574-.13.602.025 2.43-.878 3.112-1.52.701-.692 1.242-1.65 1.269-2.285.03-.704-.535-1.589-1.29-2.034-2.42-1.41-5.362.563-5.513 3.705l-.062 1.03-.613-.147c-.342-.066-1.733-.556-3.088-1.078-3.489-1.353-3.694-1.38-5.346-.607-.245.11-.049-2.48.3-4.185C4.042 12.559 8.229 7.25 14.417 4.262c1.775-.854 4.13-1.562 6.018-1.825 1.887-.247 5.703-.101 7.58.306m-11.33 18.959c.462.484.494.95.122 1.605-.54.94-2.004 1.773-3.352 1.887-.692.074-.76.054-.845-.38-.226-1.145.57-2.85 1.588-3.322.897-.443 1.995-.345 2.488.21m27.753 4.47c-1.108 9.02-7.745 16.083-16.902 18.05-2.242.472-5.943.469-8.298-.027C12.293 42.745 6.654 38.1 3.87 31.529c-.907-2.154-1.192-3.543-1.13-5.399.043-1.409.083-1.545.475-1.838.622-.455 1.375-.354 3.439.508 1.843.785 4.203 1.556 4.753 1.58.172.007.503.314.763.669.584.85.816 1.067 1.641 1.498.892.485 2.37.549 3.575.153 1.048-.351 2.685-1.606 3.525-2.723l.565-.733.314.719c.377.842.997 1.246 1.976 1.288.928.04 1.807-.387 2.884-1.408l.879-.823.533.815c.598.92 1.082 1.284 1.751 1.33.602.026 1.522-.554 2.195-1.403.292-.383.615-.696.684-.693.07-.015.484.347.913.779 1.156 1.167 2.066 1.619 3.61 1.77 2.262.235 4.642-.661 6.525-2.422.377-.38.752-.673.803-.671s.003.74-.105 1.647"/></svg>