<svg width="45" height="45" viewBox="0 0 45 45" fill="none" xmlns="http://www.w3.org/2000/svg">
<circle cx="22.5" cy="22.5" r="21.5" fill="#FFFAEB"/>
<path d="M19.8997 0.148229C10.4844 1.31183 2.93414 7.99064 0.668175 17.1139C-1.16289 24.5184 0.817425 32.1715 6.0192 37.7603C11.9291 44.1018 20.7781 46.5263 28.9759 44.0379C32.6905 42.9234 36.387 40.6214 38.9503 37.8409C44.0943 32.2807 46.0376 25.0702 44.4734 17.3489C44.1455 15.7523 42.7853 12.5292 41.6271 10.6221C39.7926 7.61956 36.5654 4.57483 33.3363 2.78571C29.4344 0.62386 24.2275 -0.406776 19.8997 0.148229ZM27.0767 1.81337C31.1187 2.70829 34.7679 4.73895 37.7037 7.75405C40.8699 11.0198 42.8337 15.0255 43.498 19.6294C43.7136 21.0319 43.7121 21.0663 43.3003 21.84C41.956 24.294 38.1935 26.1289 35.8282 25.4775C34.7386 25.1902 34.2026 24.8405 33.0795 23.7261C31.7253 22.3782 31.4833 22.4023 30.2056 24.1023C29.8406 24.5856 29.4307 24.9121 29.1356 24.9683C28.736 25.0545 28.6014 24.9799 28.2439 24.483C27.6118 23.5616 26.8221 22.7022 26.5987 22.6927C26.4956 22.6883 25.9072 23.162 25.2973 23.738C23.0009 25.9106 21.8038 25.722 21.6201 23.1683C21.4908 21.3567 20.8901 21.3138 19.9217 23.027C19.1944 24.3377 18.0374 25.6301 17.083 26.2086C16.2705 26.69 14.7736 27.0733 14.3326 26.9169C14.2145 26.8603 13.9081 26.7784 13.6525 26.7159C12.9889 26.5327 12.0961 25.669 12.3956 25.5097C12.5195 25.429 12.7803 25.3713 12.9693 25.3794C13.5708 25.4051 15.3998 24.5026 16.0814 23.8609C16.7824 23.1683 17.3225 22.2109 17.3496 21.5756C17.3797 20.8716 16.8148 19.9874 16.0591 19.5424C13.6402 18.1318 10.6981 20.1049 10.5468 23.2463L10.4856 24.2758L9.87209 24.1292C9.53059 24.063 8.13975 23.5736 6.78474 23.0514C3.29595 21.6984 3.09047 21.6724 1.43918 22.4448C1.19346 22.5548 1.39005 19.9657 1.73829 18.2605C3.10602 11.6275 7.29233 6.31885 13.4799 3.33179C15.2552 2.47866 17.6096 1.77065 19.4974 1.50718C21.3845 1.26087 25.2003 1.40648 27.0767 1.81337ZM15.7486 20.7676C16.21 21.2517 16.2417 21.7175 15.8694 22.3725C15.33 23.3128 13.8656 24.1448 12.5178 24.2593C11.826 24.333 11.758 24.3128 11.6732 23.8792C11.4467 22.7342 12.2424 21.0308 13.2611 20.5583C14.1581 20.1149 15.2557 20.2133 15.7486 20.7676ZM43.4997 25.2372C42.3917 34.255 35.7547 41.3168 26.5979 43.2827C24.3568 43.7548 20.6555 43.7516 18.3008 43.2555C11.3557 41.8067 5.71761 37.1626 2.93352 30.5933C2.02693 28.4388 1.74187 27.0505 1.80383 25.1954C1.84674 23.7867 1.88697 23.6509 2.27823 23.3579C2.90022 22.9028 3.65343 23.0038 5.71701 23.8659C7.56011 24.6498 9.92023 25.4213 10.4701 25.4448C10.642 25.4521 10.9732 25.7587 11.2335 26.1138C11.817 26.9644 12.0488 27.1807 12.874 27.6115C13.7658 28.0968 15.2437 28.1599 16.4485 27.764C17.4964 27.4131 19.1339 26.1585 19.9735 25.0418L20.5385 24.3091L20.8521 25.0277C21.2294 25.8695 21.8491 26.2743 22.8286 26.3161C23.7566 26.3557 24.6356 25.9288 25.7122 24.9082L26.5909 24.0857L27.1243 24.8997C27.722 25.8197 28.2057 26.1843 28.8752 26.2301C29.4766 26.2558 30.3966 25.6758 31.0699 24.8272C31.3617 24.444 31.6849 24.131 31.7537 24.1339C31.8231 24.1197 32.2381 24.4814 32.6673 24.9126C33.8226 26.08 34.733 26.5316 36.276 26.6835C38.5385 26.9176 40.9182 26.0215 42.801 24.2613C43.1788 23.8818 43.5528 23.5881 43.6044 23.5903C43.656 23.5925 43.6073 24.3301 43.4997 25.2372Z" fill="#181306"/>
</svg>
