<svg width="256" height="257" viewBox="0 0 256 257" fill="none" xmlns="http://www.w3.org/2000/svg">
<circle cx="128" cy="128.5" r="95.8014" fill="#FFB531"/>
<path d="M128 26.436C74.5793 26.436 25.9362 67.2616 25.9362 128.5C25.9362 183.658 72.8421 230.564 128 230.564C183.158 230.564 230.064 185.395 230.064 128.5C230.064 71.6047 181.421 26.436 128 26.436Z" stroke="#FFB531" stroke-width="3" stroke-linecap="round" stroke-linejoin="round" stroke-dasharray="0.1 12"/>
<path d="M128 17.8447C69.9021 17.8447 17 62.2447 17 128.845C17 188.832 68.0128 239.845 128 239.845C187.987 239.845 239 190.721 239 128.845C239 66.9681 186.098 17.8447 128 17.8447Z" stroke="#FFB531" stroke-width="2" stroke-linecap="round" stroke-linejoin="round" stroke-dasharray="0.1 10"/>
<path d="M120.455 8.41747C57.603 12.3668 3.39042 63.9958 7.91768 136.045C11.9954 200.941 70.6499 252.66 135.545 248.582C200.441 244.504 252.289 187.894 248.082 120.954C243.876 54.0149 183.306 4.46816 120.455 8.41747Z" stroke="#FFB531" stroke-width="2" stroke-linecap="round" stroke-linejoin="round" stroke-dasharray="0.1 10"/>
</svg>
