<svg xmlns="http://www.w3.org/2000/svg" width="378" height="271" fill="none"><rect width="367" height="261.254" x="9.5" y="6.5" fill="#181306" rx="23.5"/><rect width="369" height="263.254" fill="#FFFAEB" rx="25"/><rect width="367" height="261.254" x="1.5" y="1.5" stroke="#181306" stroke-width="3" rx="23.5"/><path fill="#DCE5C8" d="M3 25C3 12.85 12.85 3 25 3h320c12.15 0 22 9.85 22 22v25H3z"/><path stroke="#181306" stroke-width="3" d="M2 50h366"/><path fill="#FFFAEB" stroke="#181306" stroke-width="1.2" d="M40.893 26.5c0 6.184-5.013 11.196-11.197 11.196S18.5 32.684 18.5 26.5s5.013-11.196 11.196-11.196c6.184 0 11.197 5.013 11.197 11.196Zm33.392 0c0 6.184-5.012 11.196-11.196 11.196-6.183 0-11.196-5.012-11.196-11.196s5.012-11.196 11.196-11.196S74.285 20.317 74.285 26.5Zm33.393 0c0 6.184-5.013 11.196-11.196 11.196-6.184 0-11.197-5.012-11.197-11.196s5.013-11.196 11.197-11.196 11.196 5.013 11.196 11.196Z"/></svg>